<svg width="456" height="400" viewBox="0 0 456 400" fill="none" xmlns="http://www.w3.org/2000/svg">
<g filter="url(#filter0_d)">
<path d="M338.41 81.056C370.12 95.264 394.27 125.408 407.08 159.584C419.89 193.76 421.36 231.584 404.98 260.192C388.6 288.608 354.37 307.616 322.03 326.816C289.69 346.208 259.24 365.792 225.85 369.824C192.46 373.664 155.71 361.952 124.63 342.368C93.5499 322.592 67.72 295.136 62.68 264.992C57.43 235.04 72.76 202.592 85.78 170.528C98.8 138.656 109.72 107.168 133.24 90.656C156.76 74.144 192.88 72.8 230.47 71.072C267.85 69.344 306.91 67.04 338.41 81.056Z" fill="#FFC700"/>
<path d="M405.45 112.25C410.45 116.9 410.6 127.1 412.15 135.9C413.65 144.7 416.5 152.1 415.9 159.75C415.35 167.35 411.3 175.3 404.9 179C398.55 182.7 389.75 182.25 381 182.25C372.2 182.3 363.4 182.8 355.75 179.5C348.05 176.2 341.55 169.1 340.6 161.3C339.65 153.5 344.3 145.05 348.85 138.25C353.4 131.45 357.8 126.3 363.15 121.75C368.5 117.25 374.75 113.35 382.75 110.95C390.75 108.55 400.5 107.65 405.45 112.25Z" fill="#DDE8FF"/>
<path d="M381.017 143.667C379.176 143.667 377.684 145.159 377.684 147C377.684 148.841 379.176 150.333 381.017 150.333C382.858 150.333 384.35 148.841 384.35 147C384.348 145.16 382.857 143.669 381.017 143.667ZM381.017 149C379.912 149 379.017 148.105 379.017 147C379.017 145.896 379.912 145 381.017 145C382.122 145 383.017 145.896 383.017 147C383.017 148.105 382.122 149 381.017 149Z" fill="url(#paint0_linear)"/>
<path d="M392.617 147C393.619 146.153 394.571 145.249 395.469 144.292C398.32 141.208 399.313 138.686 398.34 137C396.94 134.578 392.237 135.027 386.82 136.953C385.776 131.299 383.813 127 381.017 127C378.221 127 376.258 131.299 375.217 136.953C369.8 135.028 365.095 134.579 363.697 137C362.724 138.686 363.716 141.208 366.568 144.292C367.465 145.249 368.416 146.153 369.417 147C368.415 147.847 367.463 148.751 366.565 149.708C363.716 152.792 362.723 155.314 363.696 157C364.363 158.156 365.784 158.658 367.676 158.658C370.26 158.531 372.807 157.987 375.217 157.046C376.258 162.701 378.221 167 381.017 167C383.813 167 385.776 162.701 386.817 157.047C389.227 157.987 391.774 158.531 394.358 158.658C396.249 158.658 397.67 158.155 398.337 157C399.311 155.314 398.318 152.792 395.466 149.708C394.569 148.751 393.618 147.847 392.617 147ZM397.185 137.667C397.809 138.748 396.802 140.887 394.491 143.387C393.575 144.361 392.603 145.279 391.577 146.136C390.346 145.146 389.006 144.165 387.567 143.214C387.463 141.526 387.287 139.863 387.044 138.281C392.417 136.352 396.334 136.2 397.183 137.667H397.185ZM383.684 151.619C382.78 152.14 381.891 152.624 381.017 153.073C380.144 152.625 379.255 152.14 378.35 151.619C377.458 151.103 376.596 150.569 375.757 150.028C375.708 149.051 375.684 148.041 375.684 147C375.684 145.959 375.708 144.949 375.757 143.972C376.596 143.431 377.458 142.897 378.35 142.381C379.254 141.86 380.143 141.375 381.017 140.927C381.89 141.377 382.781 141.861 383.684 142.381C384.577 142.897 385.438 143.431 386.277 143.972C386.326 144.949 386.35 145.959 386.35 147C386.35 148.041 386.326 149.051 386.277 150.028C385.438 150.569 384.577 151.103 383.684 151.619ZM386.173 151.678C386.075 152.932 385.94 154.122 385.772 155.24C384.72 154.825 383.622 154.346 382.486 153.803C383.113 153.469 383.736 153.127 384.348 152.774C384.961 152.421 385.577 152.049 386.173 151.678ZM379.546 153.8C378.412 154.343 377.312 154.822 376.26 155.237C376.094 154.119 375.959 152.929 375.86 151.675C376.456 152.047 377.063 152.412 377.682 152.771C378.297 153.127 378.919 153.467 379.546 153.8ZM374.388 149.115C373.374 148.421 372.416 147.715 371.514 147C372.413 146.286 373.371 145.58 374.388 144.882C374.364 145.589 374.35 146.296 374.35 147C374.35 147.704 374.364 148.411 374.388 149.118V149.115ZM375.862 142.319C375.959 141.066 376.094 139.877 376.262 138.759C377.313 139.174 378.41 139.653 379.544 140.195C378.918 140.528 378.299 140.87 377.686 141.223C377.064 141.583 376.456 141.95 375.862 142.322V142.319ZM382.49 140.2C383.623 139.657 384.723 139.179 385.774 138.763C385.94 139.881 386.075 141.071 386.174 142.325C385.577 141.951 384.969 141.585 384.35 141.226C383.738 140.873 383.117 140.533 382.49 140.2ZM387.646 144.885C388.66 145.579 389.618 146.285 390.521 147C389.621 147.714 388.663 148.42 387.646 149.118C387.67 148.411 387.684 147.704 387.684 147C387.684 146.296 387.67 145.589 387.646 144.882V144.885ZM381.017 128.333C382.714 128.333 384.54 131.805 385.554 137.423C384.062 138.004 382.533 138.684 381.021 139.438C379.505 138.684 377.975 138.004 376.487 137.423C377.494 131.805 379.32 128.333 381.017 128.333ZM367.546 143.387C365.234 140.887 364.227 138.748 364.851 137.667C365.228 137.015 366.208 136.682 367.651 136.682C370.168 136.814 372.647 137.355 374.992 138.282C374.749 139.862 374.574 141.524 374.469 143.211C373.03 144.162 371.69 145.145 370.459 146.133C369.434 145.277 368.461 144.36 367.546 143.387ZM364.851 156.333C364.227 155.252 365.234 153.113 367.546 150.613C368.461 149.639 369.434 148.721 370.459 147.864C371.69 148.854 373.03 149.835 374.469 150.786C374.574 152.474 374.749 154.137 374.992 155.719C369.617 157.648 365.7 157.8 364.851 156.333ZM381.017 165.667C379.32 165.667 377.495 162.195 376.484 156.577C377.975 155.997 379.505 155.317 381.021 154.563C382.536 155.317 384.066 155.997 385.557 156.577C384.539 162.195 382.714 165.667 381.017 165.667ZM397.183 156.333C396.335 157.8 392.415 157.648 387.042 155.717C387.285 154.137 387.46 152.474 387.565 150.784C389.004 149.833 390.344 148.851 391.575 147.862C392.601 148.719 393.573 149.637 394.488 150.611C396.8 153.113 397.807 155.252 397.183 156.333Z" fill="url(#paint1_linear)"/>
<path d="M98.3001 247.05C105.7 250.3 112.55 256.45 115.5 264.2C118.5 271.9 117.65 281.25 114.45 289.4C111.2 297.55 105.65 304.5 98.6501 308.7C91.7001 312.95 83.3501 314.45 75.3501 313.95C67.4001 313.45 59.8001 310.9 54.6501 306.1C49.5001 301.25 46.8501 294.15 44.8501 287.05C42.8501 279.95 41.6001 272.85 43.5501 266.8C45.5501 260.75 50.7501 255.75 56.5001 252C62.3001 248.2 68.6501 245.6 75.8001 244.5C82.9501 243.4 90.9001 243.8 98.3001 247.05Z" fill="#DBF3DD"/>
<path d="M80.5 297.924C79.9255 297.924 79.3892 297.774 78.8913 297.51L73.7971 294.54C73.0311 294.127 73.4141 293.976 73.6439 293.901C74.6781 293.563 74.8696 293.488 75.942 292.886C76.0569 292.811 76.2101 292.848 76.3251 292.924L80.2319 295.217C80.3851 295.292 80.5766 295.292 80.6915 295.217L95.9741 286.532C96.1273 286.457 96.2039 286.307 96.2039 286.119V268.787C96.2039 268.599 96.1273 268.448 95.9741 268.373L80.6915 259.726C80.5383 259.651 80.3468 259.651 80.2319 259.726L64.9493 268.373C64.7961 268.448 64.7195 268.636 64.7195 268.787V286.119C64.7195 286.269 64.7961 286.457 64.9493 286.532L69.1242 288.901C71.3841 290.029 72.8012 288.713 72.8012 287.397V270.29C72.8012 270.065 72.9928 269.839 73.2609 269.839H75.2143C75.4441 269.839 75.6739 270.027 75.6739 270.29V287.397C75.6739 290.367 74.0269 292.096 71.1542 292.096C70.2733 292.096 69.5839 292.096 67.6304 291.157L63.6087 288.901C62.6128 288.337 62 287.284 62 286.156V268.824C62 267.696 62.6128 266.644 63.6087 266.08L78.8913 257.395C79.8489 256.868 81.1511 256.868 82.1087 257.395L97.3913 266.08C98.3872 266.644 99 267.696 99 268.824V286.156C99 287.284 98.3872 288.337 97.3913 288.901L82.1087 297.586C81.6108 297.811 81.0362 297.924 80.5 297.924ZM85.2112 286.006C78.5083 286.006 77.1294 282.998 77.1294 280.441C77.1294 280.216 77.3209 279.99 77.589 279.99H79.5807C79.8106 279.99 80.0021 280.141 80.0021 280.366C80.3085 282.359 81.1894 283.336 85.2495 283.336C88.4669 283.336 89.8458 282.622 89.8458 280.93C89.8458 279.953 89.4627 279.238 84.4451 278.75C80.2702 278.336 77.6656 277.434 77.6656 274.163C77.6656 271.118 80.2702 269.313 84.6366 269.313C89.5393 269.313 91.9524 270.967 92.2588 274.576C92.2588 274.689 92.2205 274.802 92.1439 274.915C92.0673 274.99 91.9524 275.065 91.8375 275.065H89.8458C89.6542 275.065 89.4627 274.915 89.4244 274.727C88.9648 272.659 87.7774 271.982 84.6366 271.982C81.1128 271.982 80.6915 273.185 80.6915 274.088C80.6915 275.178 81.1894 275.516 85.9389 276.118C90.6501 276.719 92.8716 277.584 92.8716 280.817C92.8333 284.126 90.0756 286.006 85.2112 286.006Z" fill="#539E43"/>
<path d="M194.97 158.48H187.41L185.38 170.1H193.99L192.45 177.8H184.12L182.16 189H174.39L176.35 177.8H166.06L164.1 189H156.26L158.22 177.8H151.01L152.55 170.1H159.55L161.58 158.48H153.6L155.14 150.78H162.91L164.94 138.88H172.71L170.68 150.78H180.97L183 138.88H190.84L188.67 150.78H196.51L194.97 158.48ZM179.71 158.48H169.42L167.32 170.1H177.61L179.71 158.48ZM227.084 147.49V140.07H250.884V172.34C250.884 178.033 249.437 182.303 246.544 185.15C243.65 187.997 239.94 189.42 235.414 189.42C229.72 189.42 224.867 187.413 220.854 183.4L225.544 176.89C228.717 179.923 231.82 181.44 234.854 181.44C237 181.44 238.82 180.717 240.314 179.27C241.854 177.823 242.624 175.653 242.624 172.76V147.49H227.084ZM278.798 146.51C276.418 146.51 274.458 147 272.918 147.98C271.378 148.96 270.608 150.453 270.608 152.46C270.608 154.42 271.378 155.937 272.918 157.01C274.458 158.037 277.725 159.157 282.718 160.37C287.758 161.583 291.538 163.287 294.058 165.48C296.625 167.673 297.908 170.917 297.908 175.21C297.908 179.457 296.298 182.91 293.078 185.57C289.858 188.23 285.635 189.56 280.408 189.56C272.755 189.56 265.965 186.923 260.038 181.65L265.218 175.42C270.165 179.713 275.298 181.86 280.618 181.86C283.278 181.86 285.378 181.3 286.918 180.18C288.505 179.013 289.298 177.497 289.298 175.63C289.298 173.717 288.552 172.247 287.058 171.22C285.612 170.147 283.092 169.19 279.498 168.35C275.905 167.463 273.175 166.67 271.308 165.97C269.442 165.223 267.785 164.267 266.338 163.1C263.445 160.907 261.998 157.547 261.998 153.02C261.998 148.493 263.632 145.017 266.898 142.59C270.212 140.117 274.295 138.88 279.148 138.88C282.275 138.88 285.378 139.393 288.458 140.42C291.538 141.447 294.198 142.893 296.438 144.76L292.028 150.99C290.582 149.683 288.622 148.61 286.148 147.77C283.675 146.93 281.225 146.51 278.798 146.51Z" fill="#FF9900"/>
<path d="M211.28 227.86C211.933 227.86 212.47 228.047 212.89 228.42C213.31 228.793 213.52 229.307 213.52 229.96L213.38 230.87L197.91 275.67C197.77 276.09 197.513 276.417 197.14 276.65C196.813 276.883 196.44 277 196.02 277C194.947 277 194.247 276.557 193.92 275.67L181.81 245.78L169.7 275.67C169.28 276.557 168.58 277 167.6 277C167.18 277 166.783 276.883 166.41 276.65C166.083 276.417 165.873 276.09 165.78 275.67L150.31 230.87C150.17 230.59 150.1 230.31 150.1 230.03C150.1 229.377 150.333 228.863 150.8 228.49C151.313 228.07 151.85 227.86 152.41 227.86C152.877 227.86 153.297 227.977 153.67 228.21C154.043 228.443 154.3 228.77 154.44 229.19L168.16 269.23L179.92 239.9C180.34 238.967 180.993 238.523 181.88 238.57C182.347 238.523 182.743 238.64 183.07 238.92C183.443 239.153 183.723 239.48 183.91 239.9L195.6 269.23L209.18 229.19C209.553 228.303 210.253 227.86 211.28 227.86ZM249.977 272.87C250.584 272.87 251.074 273.08 251.447 273.5C251.867 273.92 252.077 274.41 252.077 274.97C252.077 275.577 251.867 276.067 251.447 276.44C251.074 276.813 250.584 277 249.977 277H224.287C223.681 277 223.167 276.813 222.747 276.44C222.374 276.02 222.187 275.507 222.187 274.9V230.1C222.187 229.493 222.374 229.003 222.747 228.63C223.167 228.21 223.681 228 224.287 228H249.977C250.584 228 251.074 228.21 251.447 228.63C251.867 229.003 252.077 229.493 252.077 230.1C252.077 230.707 251.867 231.197 251.447 231.57C251.074 231.943 250.584 232.13 249.977 232.13H226.597V249.7H246.827C247.434 249.7 247.924 249.91 248.297 250.33C248.717 250.703 248.927 251.193 248.927 251.8C248.927 252.407 248.717 252.897 248.297 253.27C247.924 253.643 247.434 253.83 246.827 253.83H226.597V272.87H249.977ZM289.763 272.87C290.369 272.87 290.859 273.08 291.233 273.5C291.653 273.92 291.863 274.41 291.863 274.97C291.863 275.577 291.653 276.067 291.233 276.44C290.859 276.813 290.369 277 289.763 277H264.073C263.466 277 262.953 276.813 262.533 276.44C262.159 276.02 261.973 275.507 261.973 274.9V230.1C261.973 229.493 262.159 229.003 262.533 228.63C262.953 228.21 263.466 228 264.073 228H289.763C290.369 228 290.859 228.21 291.233 228.63C291.653 229.003 291.863 229.493 291.863 230.1C291.863 230.707 291.653 231.197 291.233 231.57C290.859 231.943 290.369 232.13 289.763 232.13H266.383V249.7H286.613C287.219 249.7 287.709 249.91 288.083 250.33C288.503 250.703 288.713 251.193 288.713 251.8C288.713 252.407 288.503 252.897 288.083 253.27C287.709 253.643 287.219 253.83 286.613 253.83H266.383V272.87H289.763ZM338.648 273.57C338.974 274.037 339.138 274.527 339.138 275.04C339.138 275.74 338.881 276.3 338.368 276.72C337.901 277.093 337.364 277.28 336.758 277.28C336.151 277.28 335.638 277.023 335.218 276.51L315.688 251.94L306.168 260.9V274.83C306.121 275.483 305.888 276.02 305.468 276.44C305.048 276.813 304.534 277 303.928 277C303.274 277 302.738 276.813 302.318 276.44C301.944 276.02 301.758 275.483 301.758 274.83V230.17C301.758 229.517 301.968 229.003 302.388 228.63C302.808 228.21 303.344 228 303.998 228C304.651 228 305.164 228.21 305.538 228.63C305.958 229.003 306.168 229.517 306.168 230.17V255.58L334.448 228.84C334.868 228.373 335.381 228.14 335.988 228.14C336.548 228.14 337.014 228.35 337.388 228.77C337.808 229.19 338.018 229.657 338.018 230.17C338.018 230.73 337.808 231.22 337.388 231.64L319.048 248.79L338.648 273.57Z" fill="black"/>
<path d="M194.97 158.48V160.48H196.61L196.931 158.872L194.97 158.48ZM187.41 158.48V156.48H185.729L185.44 158.136L187.41 158.48ZM185.38 170.1L183.41 169.756L183 172.1H185.38V170.1ZM193.99 170.1L195.951 170.492L196.43 168.1H193.99V170.1ZM192.45 177.8V179.8H194.09L194.411 178.192L192.45 177.8ZM184.12 177.8V175.8H182.44L182.15 177.455L184.12 177.8ZM182.16 189V191H183.84L184.13 189.345L182.16 189ZM174.39 189L172.42 188.655L172.01 191H174.39V189ZM176.35 177.8L178.32 178.145L178.73 175.8H176.35V177.8ZM166.06 177.8V175.8H164.38L164.09 177.455L166.06 177.8ZM164.1 189V191H165.78L166.07 189.345L164.1 189ZM156.26 189L154.29 188.655L153.88 191H156.26V189ZM158.22 177.8L160.19 178.145L160.6 175.8H158.22V177.8ZM151.01 177.8L149.049 177.408L148.57 179.8H151.01V177.8ZM152.55 170.1V168.1H150.91L150.589 169.708L152.55 170.1ZM159.55 170.1V172.1H161.231L161.52 170.444L159.55 170.1ZM161.58 158.48L163.55 158.824L163.96 156.48H161.58V158.48ZM153.6 158.48L151.639 158.088L151.16 160.48H153.6V158.48ZM155.14 150.78V148.78H153.5L153.179 150.388L155.14 150.78ZM162.91 150.78V152.78H164.598L164.882 151.116L162.91 150.78ZM164.94 138.88V136.88H163.252L162.968 138.544L164.94 138.88ZM172.71 138.88L174.682 139.216L175.08 136.88H172.71V138.88ZM170.68 150.78L168.708 150.444L168.31 152.78H170.68V150.78ZM180.97 150.78V152.78H182.658L182.942 151.116L180.97 150.78ZM183 138.88V136.88H181.312L181.028 138.544L183 138.88ZM190.84 138.88L192.808 139.239L193.238 136.88H190.84V138.88ZM188.67 150.78L186.702 150.421L186.272 152.78H188.67V150.78ZM196.51 150.78L198.471 151.172L198.95 148.78H196.51V150.78ZM179.71 158.48L181.678 158.836L182.104 156.48H179.71V158.48ZM169.42 158.48V156.48H167.749L167.452 158.124L169.42 158.48ZM167.32 170.1L165.352 169.744L164.926 172.1H167.32V170.1ZM177.61 170.1V172.1H179.281L179.578 170.456L177.61 170.1ZM194.97 156.48H187.41V160.48H194.97V156.48ZM185.44 158.136L183.41 169.756L187.35 170.444L189.38 158.824L185.44 158.136ZM185.38 172.1H193.99V168.1H185.38V172.1ZM192.029 169.708L190.489 177.408L194.411 178.192L195.951 170.492L192.029 169.708ZM192.45 175.8H184.12V179.8H192.45V175.8ZM182.15 177.455L180.19 188.655L184.13 189.345L186.09 178.145L182.15 177.455ZM182.16 187H174.39V191H182.16V187ZM176.36 189.345L178.32 178.145L174.38 177.455L172.42 188.655L176.36 189.345ZM176.35 175.8H166.06V179.8H176.35V175.8ZM164.09 177.455L162.13 188.655L166.07 189.345L168.03 178.145L164.09 177.455ZM164.1 187H156.26V191H164.1V187ZM158.23 189.345L160.19 178.145L156.25 177.455L154.29 188.655L158.23 189.345ZM158.22 175.8H151.01V179.8H158.22V175.8ZM152.971 178.192L154.511 170.492L150.589 169.708L149.049 177.408L152.971 178.192ZM152.55 172.1H159.55V168.1H152.55V172.1ZM161.52 170.444L163.55 158.824L159.61 158.136L157.58 169.756L161.52 170.444ZM161.58 156.48H153.6V160.48H161.58V156.48ZM155.561 158.872L157.101 151.172L153.179 150.388L151.639 158.088L155.561 158.872ZM155.14 152.78H162.91V148.78H155.14V152.78ZM164.882 151.116L166.912 139.216L162.968 138.544L160.938 150.444L164.882 151.116ZM164.94 140.88H172.71V136.88H164.94V140.88ZM170.738 138.544L168.708 150.444L172.652 151.116L174.682 139.216L170.738 138.544ZM170.68 152.78H180.97V148.78H170.68V152.78ZM182.942 151.116L184.972 139.216L181.028 138.544L178.998 150.444L182.942 151.116ZM183 140.88H190.84V136.88H183V140.88ZM188.872 138.521L186.702 150.421L190.638 151.139L192.808 139.239L188.872 138.521ZM188.67 152.78H196.51V148.78H188.67V152.78ZM194.549 150.388L193.009 158.088L196.931 158.872L198.471 151.172L194.549 150.388ZM179.71 156.48H169.42V160.48H179.71V156.48ZM167.452 158.124L165.352 169.744L169.288 170.456L171.388 158.836L167.452 158.124ZM167.32 172.1H177.61V168.1H167.32V172.1ZM179.578 170.456L181.678 158.836L177.742 158.124L175.642 169.744L179.578 170.456ZM227.084 147.49H225.084V149.49H227.084V147.49ZM227.084 140.07V138.07H225.084V140.07H227.084ZM250.884 140.07H252.884V138.07H250.884V140.07ZM246.544 185.15L247.946 186.576L246.544 185.15ZM220.854 183.4L219.231 182.231L218.236 183.611L219.439 184.814L220.854 183.4ZM225.544 176.89L226.926 175.444L225.264 173.856L223.921 175.721L225.544 176.89ZM240.314 179.27L238.944 177.812L238.933 177.823L238.922 177.834L240.314 179.27ZM242.624 147.49H244.624V145.49H242.624V147.49ZM229.084 147.49V140.07H225.084V147.49H229.084ZM227.084 142.07H250.884V138.07H227.084V142.07ZM248.884 140.07V172.34H252.884V140.07H248.884ZM248.884 172.34C248.884 177.717 247.52 181.384 245.141 183.724L247.946 186.576C251.354 183.223 252.884 178.35 252.884 172.34H248.884ZM245.141 183.724C242.666 186.159 239.481 187.42 235.414 187.42V191.42C240.399 191.42 244.634 189.834 247.946 186.576L245.141 183.724ZM235.414 187.42C230.249 187.42 225.905 185.623 222.268 181.986L219.439 184.814C223.829 189.204 229.192 191.42 235.414 191.42V187.42ZM222.476 184.569L227.166 178.059L223.921 175.721L219.231 182.231L222.476 184.569ZM224.162 178.336C227.541 181.566 231.115 183.44 234.854 183.44V179.44C232.526 179.44 229.892 178.28 226.926 175.444L224.162 178.336ZM234.854 183.44C237.501 183.44 239.826 182.527 241.705 180.706L238.922 177.834C237.815 178.906 236.5 179.44 234.854 179.44V183.44ZM241.683 180.728C243.757 178.78 244.624 175.995 244.624 172.76H240.624C240.624 175.312 239.95 176.867 238.944 177.812L241.683 180.728ZM244.624 172.76V147.49H240.624V172.76H244.624ZM242.624 145.49H227.084V149.49H242.624V145.49ZM272.918 157.01L271.775 158.651L271.792 158.663L271.809 158.674L272.918 157.01ZM282.718 160.37L282.246 162.313L282.25 162.314L282.718 160.37ZM294.058 165.48L292.745 166.989L292.752 166.995L292.759 167L294.058 165.48ZM293.078 185.57L294.352 187.112L293.078 185.57ZM260.038 181.65L258.5 180.371L257.264 181.859L258.709 183.144L260.038 181.65ZM265.218 175.42L266.529 173.91L264.986 172.571L263.68 174.141L265.218 175.42ZM286.918 180.18L288.095 181.797L288.103 181.791L286.918 180.18ZM287.058 171.22L285.867 172.826L285.896 172.848L285.925 172.868L287.058 171.22ZM279.498 168.35L279.019 170.292L279.031 170.295L279.043 170.297L279.498 168.35ZM271.308 165.97L270.565 167.827L270.586 167.835L270.606 167.843L271.308 165.97ZM266.338 163.1L267.594 161.543L267.57 161.524L267.546 161.506L266.338 163.1ZM266.898 142.59L268.091 144.195L268.095 144.193L266.898 142.59ZM288.458 140.42L287.826 142.317V142.317L288.458 140.42ZM296.438 144.76L298.071 145.916L299.139 144.407L297.719 143.224L296.438 144.76ZM292.028 150.99L290.688 152.474L292.359 153.984L293.661 152.146L292.028 150.99ZM278.798 144.51C276.152 144.51 273.789 145.055 271.845 146.293L273.992 149.667C275.127 148.945 276.685 148.51 278.798 148.51V144.51ZM271.845 146.293C269.663 147.681 268.608 149.85 268.608 152.46H272.608C272.608 151.056 273.094 150.239 273.992 149.667L271.845 146.293ZM268.608 152.46C268.608 155.04 269.671 157.184 271.775 158.651L274.062 155.369C273.086 154.689 272.608 153.8 272.608 152.46H268.608ZM271.809 158.674C272.796 159.332 274.193 159.935 275.875 160.512C277.587 161.099 279.716 161.699 282.246 162.313L283.191 158.427C280.728 157.828 278.727 157.261 277.172 156.728C275.587 156.185 274.58 155.714 274.028 155.346L271.809 158.674ZM282.25 162.314C287.134 163.49 290.565 165.091 292.745 166.989L295.371 163.971C292.511 161.482 288.383 159.677 283.186 158.426L282.25 162.314ZM292.759 167C294.765 168.715 295.908 171.33 295.908 175.21H299.908C299.908 170.503 298.484 166.632 295.358 163.96L292.759 167ZM295.908 175.21C295.908 178.872 294.556 181.755 291.805 184.028L294.352 187.112C298.041 184.065 299.908 180.042 299.908 175.21H295.908ZM291.805 184.028C289.026 186.324 285.29 187.56 280.408 187.56V191.56C285.98 191.56 290.691 190.136 294.352 187.112L291.805 184.028ZM280.408 187.56C273.264 187.56 266.943 185.116 261.368 180.156L258.709 183.144C264.987 188.73 272.245 191.56 280.408 191.56V187.56ZM261.576 182.929L266.756 176.699L263.68 174.141L258.5 180.371L261.576 182.929ZM263.907 176.93C269.13 181.464 274.712 183.86 280.618 183.86V179.86C275.884 179.86 271.2 177.963 266.529 173.91L263.907 176.93ZM280.618 183.86C283.538 183.86 286.101 183.247 288.095 181.797L285.742 178.563C284.656 179.353 283.019 179.86 280.618 179.86V183.86ZM288.103 181.791C290.169 180.272 291.298 178.173 291.298 175.63H287.298C287.298 176.821 286.841 177.755 285.734 178.569L288.103 181.791ZM291.298 175.63C291.298 173.102 290.262 170.996 288.191 169.572L285.925 172.868C286.841 173.498 287.298 174.332 287.298 175.63H291.298ZM288.25 169.614C286.455 168.282 283.592 167.253 279.954 166.403L279.043 170.297C282.591 171.127 284.768 172.011 285.867 172.826L288.25 169.614ZM279.977 166.408C276.407 165.527 273.767 164.756 272.011 164.097L270.606 167.843C272.583 168.584 275.402 169.399 279.019 170.292L279.977 166.408ZM272.051 164.113C270.354 163.434 268.873 162.575 267.594 161.543L265.083 164.657C266.697 165.958 268.529 167.012 270.565 167.827L272.051 164.113ZM267.546 161.506C265.274 159.784 263.998 157.092 263.998 153.02H259.998C259.998 158.001 261.616 162.03 265.13 164.694L267.546 161.506ZM263.998 153.02C263.998 149.044 265.395 146.198 268.091 144.195L265.706 140.985C261.869 143.835 259.998 147.943 259.998 153.02H263.998ZM268.095 144.193C271.005 142.02 274.649 140.88 279.148 140.88V136.88C273.941 136.88 269.418 138.213 265.702 140.987L268.095 144.193ZM279.148 140.88C282.052 140.88 284.942 141.356 287.826 142.317L289.091 138.523C285.815 137.431 282.498 136.88 279.148 136.88V140.88ZM287.826 142.317C290.696 143.274 293.13 144.607 295.158 146.296L297.719 143.224C295.267 141.18 292.381 139.619 289.091 138.523L287.826 142.317ZM294.806 143.604L290.396 149.834L293.661 152.146L298.071 145.916L294.806 143.604ZM293.369 149.506C291.664 147.966 289.44 146.776 286.791 145.876L285.505 149.664C287.803 150.444 289.499 151.401 290.688 152.474L293.369 149.506ZM286.791 145.876C284.127 144.971 281.46 144.51 278.798 144.51V148.51C280.99 148.51 283.223 148.889 285.505 149.664L286.791 145.876ZM212.89 228.42L211.561 229.915L211.561 229.915L212.89 228.42ZM213.52 229.96L215.497 230.264L215.52 230.113V229.96H213.52ZM213.38 230.87L215.27 231.523L215.329 231.352L215.357 231.174L213.38 230.87ZM197.91 275.67L196.02 275.017L196.016 275.027L196.013 275.038L197.91 275.67ZM197.14 276.65L196.08 274.954L196.028 274.987L195.978 275.023L197.14 276.65ZM193.92 275.67L195.797 274.979L195.786 274.949L195.774 274.919L193.92 275.67ZM181.81 245.78L183.664 245.029L181.81 240.454L179.956 245.029L181.81 245.78ZM169.7 275.67L171.507 276.526L171.532 276.474L171.554 276.421L169.7 275.67ZM166.41 276.65L165.248 278.277L165.298 278.313L165.35 278.346L166.41 276.65ZM165.78 275.67L167.732 275.236L167.708 275.125L167.67 275.017L165.78 275.67ZM150.31 230.87L152.2 230.217L152.158 230.093L152.099 229.976L150.31 230.87ZM150.8 228.49L152.049 230.052L152.058 230.045L152.066 230.038L150.8 228.49ZM153.67 228.21L152.61 229.906H152.61L153.67 228.21ZM154.44 229.19L152.543 229.822L152.545 229.83L152.548 229.838L154.44 229.19ZM168.16 269.23L166.268 269.878L168.013 274.971L170.016 269.974L168.16 269.23ZM179.92 239.9L178.096 239.079L178.079 239.117L178.064 239.156L179.92 239.9ZM181.88 238.57L181.775 240.567L181.927 240.575L182.079 240.56L181.88 238.57ZM183.07 238.92L181.768 240.439L181.883 240.536L182.01 240.616L183.07 238.92ZM183.91 239.9L185.768 239.16L185.753 239.123L185.738 239.088L183.91 239.9ZM195.6 269.23L193.742 269.97L195.751 275.011L197.494 269.872L195.6 269.23ZM209.18 229.19L207.337 228.414L207.309 228.48L207.286 228.548L209.18 229.19ZM211.28 229.86C211.416 229.86 211.487 229.879 211.515 229.889C211.539 229.897 211.549 229.904 211.561 229.915L214.219 226.925C213.374 226.174 212.339 225.86 211.28 225.86V229.86ZM211.561 229.915C211.557 229.911 211.547 229.901 211.535 229.885C211.524 229.868 211.516 229.853 211.511 229.842C211.502 229.82 211.52 229.848 211.52 229.96H215.52C215.52 228.838 215.137 227.741 214.219 226.925L211.561 229.915ZM211.543 229.656L211.403 230.566L215.357 231.174L215.497 230.264L211.543 229.656ZM211.49 230.217L196.02 275.017L199.8 276.323L215.27 231.523L211.49 230.217ZM196.013 275.038C196.011 275.042 196.012 275.038 196.017 275.029C196.022 275.02 196.03 275.007 196.04 274.994C196.05 274.981 196.061 274.971 196.069 274.963C196.078 274.955 196.082 274.952 196.08 274.954L198.2 278.346C198.97 277.865 199.521 277.161 199.807 276.302L196.013 275.038ZM195.978 275.023C195.979 275.022 195.984 275.018 195.992 275.014C196 275.01 196.009 275.006 196.018 275.004C196.027 275.001 196.033 275 196.035 274.999C196.037 274.999 196.032 275 196.02 275V279C196.836 279 197.62 278.765 198.302 278.277L195.978 275.023ZM196.02 275C195.752 275 195.708 274.945 195.76 274.978C195.785 274.994 195.806 275.014 195.818 275.03C195.829 275.043 195.817 275.033 195.797 274.979L192.043 276.361C192.336 277.156 192.848 277.868 193.62 278.357C194.372 278.833 195.215 279 196.02 279V275ZM195.774 274.919L183.664 245.029L179.956 246.531L192.066 276.421L195.774 274.919ZM179.956 245.029L167.846 274.919L171.554 276.421L183.664 246.531L179.956 245.029ZM167.893 274.814C167.852 274.9 167.819 274.944 167.803 274.964C167.788 274.981 167.784 274.982 167.79 274.978C167.796 274.974 167.794 274.977 167.772 274.983C167.748 274.989 167.694 275 167.6 275V279C168.399 279 169.205 278.816 169.93 278.357C170.655 277.898 171.166 277.248 171.507 276.526L167.893 274.814ZM167.6 275C167.573 275 167.542 274.999 167.47 274.954L165.35 278.346C166.025 278.768 166.787 279 167.6 279V275ZM167.572 275.023C167.608 275.048 167.653 275.091 167.69 275.148C167.725 275.204 167.733 275.241 167.732 275.236L163.828 276.104C164.02 276.968 164.489 277.736 165.248 278.277L167.572 275.023ZM167.67 275.017L152.2 230.217L148.42 231.523L163.89 276.323L167.67 275.017ZM152.099 229.976C152.089 229.955 152.09 229.952 152.093 229.965C152.096 229.979 152.1 230.002 152.1 230.03H148.1C148.1 230.656 148.259 231.24 148.521 231.764L152.099 229.976ZM152.1 230.03C152.1 229.986 152.104 229.963 152.105 229.958C152.106 229.954 152.104 229.964 152.096 229.983C152.087 230.001 152.076 230.02 152.064 230.036C152.052 230.051 152.045 230.056 152.049 230.052L149.551 226.928C148.561 227.72 148.1 228.834 148.1 230.03H152.1ZM152.066 230.038C152.291 229.854 152.393 229.86 152.41 229.86V225.86C151.307 225.86 150.335 226.286 149.534 226.942L152.066 230.038ZM152.41 229.86C152.525 229.86 152.574 229.883 152.61 229.906L154.73 226.514C154.019 226.07 153.228 225.86 152.41 225.86V229.86ZM152.61 229.906C152.612 229.908 152.608 229.905 152.599 229.897C152.591 229.889 152.58 229.879 152.57 229.866C152.56 229.853 152.552 229.84 152.547 229.831C152.542 229.822 152.541 229.818 152.543 229.822L156.337 228.558C156.051 227.699 155.5 226.995 154.73 226.514L152.61 229.906ZM152.548 229.838L166.268 269.878L170.052 268.582L156.332 228.542L152.548 229.838ZM170.016 269.974L181.776 240.644L178.064 239.156L166.304 268.486L170.016 269.974ZM181.744 240.721C181.846 240.493 181.906 240.483 181.848 240.522C181.82 240.542 181.786 240.556 181.758 240.564C181.732 240.57 181.733 240.565 181.775 240.567L181.985 236.573C181.163 236.529 180.334 236.716 179.602 237.213C178.891 237.695 178.414 238.373 178.096 239.079L181.744 240.721ZM182.079 240.56C182.09 240.559 182.043 240.565 181.963 240.541C181.879 240.517 181.811 240.475 181.768 240.439L184.372 237.401C183.59 236.732 182.637 236.484 181.681 236.58L182.079 240.56ZM182.01 240.616C182.03 240.628 182.05 240.64 182.082 240.712L185.738 239.088C185.396 238.32 184.857 237.678 184.13 237.224L182.01 240.616ZM182.052 240.64L193.742 269.97L197.458 268.49L185.768 239.16L182.052 240.64ZM197.494 269.872L211.074 229.832L207.286 228.548L193.706 268.588L197.494 269.872ZM211.023 229.966C211.053 229.896 211.075 229.868 211.078 229.864C211.079 229.863 211.071 229.872 211.055 229.882C211.016 229.907 211.055 229.86 211.28 229.86V225.86C210.478 225.86 209.654 226.035 208.915 226.503C208.167 226.977 207.656 227.657 207.337 228.414L211.023 229.966ZM251.447 273.5L249.953 274.829L249.992 274.873L250.033 274.914L251.447 273.5ZM251.447 276.44L250.119 274.945L250.075 274.984L250.033 275.026L251.447 276.44ZM222.747 276.44L221.253 277.769L221.331 277.857L221.419 277.935L222.747 276.44ZM222.747 228.63L221.333 227.216L222.747 228.63ZM251.447 228.63L249.953 229.959L250.031 230.047L250.119 230.125L251.447 228.63ZM251.447 231.57L250.119 230.075L250.075 230.114L250.033 230.156L251.447 231.57ZM226.597 232.13V230.13H224.597V232.13H226.597ZM226.597 249.7H224.597V251.7H226.597V249.7ZM248.297 250.33L246.803 251.659L246.881 251.747L246.969 251.825L248.297 250.33ZM248.297 253.27L246.969 251.775L246.925 251.814L246.883 251.856L248.297 253.27ZM226.597 253.83V251.83H224.597V253.83H226.597ZM226.597 272.87H224.597V274.87H226.597V272.87ZM249.977 274.87C250.014 274.87 250.031 274.873 250.034 274.874C250.037 274.874 250.028 274.873 250.012 274.866C249.996 274.859 249.98 274.85 249.967 274.84C249.954 274.83 249.949 274.825 249.953 274.829L252.942 272.171C252.157 271.287 251.104 270.87 249.977 270.87V274.87ZM250.033 274.914C250.06 274.941 250.073 274.958 250.079 274.967C250.084 274.974 250.084 274.975 250.082 274.97C250.079 274.965 250.078 274.959 250.077 274.955C250.076 274.952 250.077 274.956 250.077 274.97H254.077C254.077 273.845 253.631 272.856 252.862 272.086L250.033 274.914ZM250.077 274.97C250.077 275.006 250.074 275.024 250.074 275.027C250.073 275.029 250.075 275.021 250.082 275.005C250.089 274.988 250.098 274.973 250.107 274.959C250.117 274.946 250.123 274.942 250.119 274.945L252.776 277.935C253.66 277.149 254.077 276.097 254.077 274.97H250.077ZM250.033 275.026C250.036 275.023 250.044 275.015 250.057 275.007C250.07 274.999 250.081 274.994 250.088 274.991C250.103 274.985 250.075 275 249.977 275V279C251.029 279 252.057 278.659 252.862 277.854L250.033 275.026ZM249.977 275H224.287V279H249.977V275ZM224.287 275C224.128 275 224.1 274.966 224.076 274.945L221.419 277.935C222.235 278.661 223.233 279 224.287 279V275ZM224.242 275.111C224.221 275.088 224.187 275.059 224.187 274.9H220.187C220.187 275.954 220.527 276.952 221.253 277.769L224.242 275.111ZM224.187 274.9V230.1H220.187V274.9H224.187ZM224.187 230.1C224.187 230.002 224.202 229.974 224.196 229.989C224.194 229.996 224.189 230.008 224.18 230.02C224.172 230.033 224.165 230.041 224.162 230.044L221.333 227.216C220.528 228.021 220.187 229.049 220.187 230.1H224.187ZM224.162 230.044C224.181 230.025 224.194 230.015 224.199 230.012C224.202 230.01 224.203 230.009 224.204 230.009C224.204 230.009 224.205 230.009 224.205 230.009C224.205 230.009 224.206 230.008 224.208 230.008C224.209 230.007 224.213 230.006 224.218 230.005C224.229 230.003 224.251 230 224.287 230V226C223.163 226 222.137 226.412 221.333 227.216L224.162 230.044ZM224.287 230H249.977V226H224.287V230ZM249.977 230C250.014 230 250.031 230.003 250.034 230.004C250.037 230.004 250.028 230.003 250.012 229.996C249.996 229.989 249.98 229.98 249.967 229.97C249.954 229.96 249.949 229.955 249.953 229.959L252.942 227.301C252.157 226.417 251.104 226 249.977 226V230ZM250.119 230.125C250.123 230.128 250.117 230.124 250.107 230.111C250.098 230.097 250.089 230.081 250.082 230.065C250.075 230.049 250.073 230.041 250.074 230.043C250.074 230.046 250.077 230.064 250.077 230.1H254.077C254.077 228.973 253.66 227.921 252.776 227.135L250.119 230.125ZM250.077 230.1C250.077 230.136 250.074 230.154 250.074 230.157C250.073 230.159 250.075 230.151 250.082 230.135C250.089 230.118 250.098 230.103 250.107 230.089C250.117 230.076 250.123 230.072 250.119 230.075L252.776 233.065C253.66 232.279 254.077 231.227 254.077 230.1H250.077ZM250.033 230.156C250.036 230.153 250.044 230.145 250.057 230.137C250.07 230.129 250.081 230.124 250.088 230.121C250.103 230.115 250.075 230.13 249.977 230.13V234.13C251.029 234.13 252.057 233.789 252.862 232.984L250.033 230.156ZM249.977 230.13H226.597V234.13H249.977V230.13ZM224.597 232.13V249.7H228.597V232.13H224.597ZM226.597 251.7H246.827V247.7H226.597V251.7ZM246.827 251.7C246.864 251.7 246.881 251.703 246.884 251.704C246.887 251.704 246.878 251.703 246.862 251.696C246.846 251.689 246.83 251.68 246.817 251.67C246.804 251.66 246.799 251.655 246.803 251.659L249.792 249.001C249.007 248.117 247.954 247.7 246.827 247.7V251.7ZM246.969 251.825C246.973 251.828 246.967 251.824 246.957 251.811C246.948 251.797 246.939 251.782 246.932 251.765C246.925 251.749 246.923 251.741 246.924 251.743C246.924 251.746 246.927 251.764 246.927 251.8H250.927C250.927 250.673 250.51 249.621 249.626 248.835L246.969 251.825ZM246.927 251.8C246.927 251.836 246.924 251.854 246.924 251.857C246.923 251.859 246.925 251.851 246.932 251.835C246.939 251.818 246.948 251.803 246.957 251.789C246.967 251.776 246.973 251.772 246.969 251.775L249.626 254.765C250.51 253.979 250.927 252.927 250.927 251.8H246.927ZM246.883 251.856C246.886 251.853 246.894 251.845 246.907 251.837C246.92 251.829 246.931 251.824 246.938 251.821C246.953 251.815 246.925 251.83 246.827 251.83V255.83C247.879 255.83 248.907 255.489 249.712 254.684L246.883 251.856ZM246.827 251.83H226.597V255.83H246.827V251.83ZM224.597 253.83V272.87H228.597V253.83H224.597ZM226.597 274.87H249.977V270.87H226.597V274.87ZM291.233 273.5L289.738 274.829L289.777 274.873L289.818 274.914L291.233 273.5ZM291.233 276.44L289.904 274.945L289.86 274.984L289.818 275.026L291.233 276.44ZM262.533 276.44L261.038 277.769L261.116 277.857L261.204 277.935L262.533 276.44ZM262.533 228.63L261.118 227.216L262.533 228.63ZM291.233 228.63L289.738 229.959L289.816 230.047L289.904 230.125L291.233 228.63ZM291.233 231.57L289.904 230.075L289.86 230.114L289.818 230.156L291.233 231.57ZM266.383 232.13V230.13H264.383V232.13H266.383ZM266.383 249.7H264.383V251.7H266.383V249.7ZM288.083 250.33L286.588 251.659L286.666 251.747L286.754 251.825L288.083 250.33ZM288.083 253.27L286.754 251.775L286.71 251.814L286.668 251.856L288.083 253.27ZM266.383 253.83V251.83H264.383V253.83H266.383ZM266.383 272.87H264.383V274.87H266.383V272.87ZM289.763 274.87C289.799 274.87 289.817 274.873 289.82 274.874C289.822 274.874 289.813 274.873 289.797 274.866C289.781 274.859 289.765 274.85 289.752 274.84C289.739 274.83 289.734 274.825 289.738 274.829L292.727 272.171C291.942 271.287 290.889 270.87 289.763 270.87V274.87ZM289.818 274.914C289.845 274.941 289.858 274.958 289.864 274.967C289.869 274.974 289.869 274.975 289.867 274.97C289.865 274.965 289.863 274.959 289.862 274.955C289.861 274.952 289.863 274.956 289.863 274.97H293.863C293.863 273.845 293.417 272.856 292.647 272.086L289.818 274.914ZM289.863 274.97C289.863 275.006 289.859 275.024 289.859 275.027C289.858 275.029 289.86 275.021 289.867 275.005C289.874 274.988 289.883 274.973 289.893 274.959C289.902 274.946 289.908 274.942 289.904 274.945L292.561 277.935C293.445 277.149 293.863 276.097 293.863 274.97H289.863ZM289.818 275.026C289.822 275.023 289.83 275.015 289.842 275.007C289.855 274.999 289.866 274.994 289.873 274.991C289.888 274.985 289.86 275 289.763 275V279C290.814 279 291.842 278.659 292.647 277.854L289.818 275.026ZM289.763 275H264.073V279H289.763V275ZM264.073 275C263.913 275 263.885 274.966 263.861 274.945L261.204 277.935C262.02 278.661 263.018 279 264.073 279V275ZM264.027 275.111C264.007 275.088 263.973 275.059 263.973 274.9H259.973C259.973 275.954 260.312 276.952 261.038 277.769L264.027 275.111ZM263.973 274.9V230.1H259.973V274.9H263.973ZM263.973 230.1C263.973 230.002 263.987 229.974 263.982 229.989C263.979 229.996 263.974 230.008 263.965 230.02C263.957 230.033 263.95 230.041 263.947 230.044L261.118 227.216C260.313 228.021 259.973 229.049 259.973 230.1H263.973ZM263.947 230.044C263.966 230.025 263.979 230.015 263.984 230.012C263.987 230.01 263.988 230.009 263.989 230.009C263.989 230.009 263.99 230.009 263.99 230.009C263.99 230.009 263.991 230.008 263.993 230.008C263.994 230.007 263.998 230.006 264.004 230.005C264.015 230.003 264.037 230 264.073 230V226C262.948 226 261.922 226.412 261.118 227.216L263.947 230.044ZM264.073 230H289.763V226H264.073V230ZM289.763 230C289.799 230 289.817 230.003 289.82 230.004C289.822 230.004 289.813 230.003 289.797 229.996C289.781 229.989 289.765 229.98 289.752 229.97C289.739 229.96 289.734 229.955 289.738 229.959L292.727 227.301C291.942 226.417 290.889 226 289.763 226V230ZM289.904 230.125C289.908 230.128 289.902 230.124 289.893 230.111C289.883 230.097 289.874 230.081 289.867 230.065C289.86 230.049 289.858 230.041 289.859 230.043C289.859 230.046 289.863 230.064 289.863 230.1H293.863C293.863 228.973 293.445 227.921 292.561 227.135L289.904 230.125ZM289.863 230.1C289.863 230.136 289.859 230.154 289.859 230.157C289.858 230.159 289.86 230.151 289.867 230.135C289.874 230.118 289.883 230.103 289.893 230.089C289.902 230.076 289.908 230.072 289.904 230.075L292.561 233.065C293.445 232.279 293.863 231.227 293.863 230.1H289.863ZM289.818 230.156C289.822 230.153 289.83 230.145 289.842 230.137C289.855 230.129 289.866 230.124 289.873 230.121C289.888 230.115 289.86 230.13 289.763 230.13V234.13C290.814 234.13 291.842 233.789 292.647 232.984L289.818 230.156ZM289.763 230.13H266.383V234.13H289.763V230.13ZM264.383 232.13V249.7H268.383V232.13H264.383ZM266.383 251.7H286.613V247.7H266.383V251.7ZM286.613 251.7C286.649 251.7 286.667 251.703 286.67 251.704C286.672 251.704 286.663 251.703 286.647 251.696C286.631 251.689 286.615 251.68 286.602 251.67C286.589 251.66 286.584 251.655 286.588 251.659L289.577 249.001C288.792 248.117 287.739 247.7 286.613 247.7V251.7ZM286.754 251.825C286.758 251.828 286.752 251.824 286.743 251.811C286.733 251.797 286.724 251.782 286.717 251.765C286.71 251.749 286.708 251.741 286.709 251.743C286.709 251.746 286.713 251.764 286.713 251.8H290.713C290.713 250.673 290.295 249.621 289.411 248.835L286.754 251.825ZM286.713 251.8C286.713 251.836 286.709 251.854 286.709 251.857C286.708 251.859 286.71 251.851 286.717 251.835C286.724 251.818 286.733 251.803 286.743 251.789C286.752 251.776 286.758 251.772 286.754 251.775L289.411 254.765C290.295 253.979 290.713 252.927 290.713 251.8H286.713ZM286.668 251.856C286.672 251.853 286.68 251.845 286.692 251.837C286.705 251.829 286.716 251.824 286.723 251.821C286.738 251.815 286.71 251.83 286.613 251.83V255.83C287.664 255.83 288.692 255.489 289.497 254.684L286.668 251.856ZM286.613 251.83H266.383V255.83H286.613V251.83ZM264.383 253.83V272.87H268.383V253.83H264.383ZM266.383 274.87H289.763V270.87H266.383V274.87ZM338.648 273.57L340.286 272.423L340.253 272.375L340.216 272.329L338.648 273.57ZM338.368 276.72L339.617 278.282L339.626 278.275L339.634 278.268L338.368 276.72ZM335.218 276.51L333.652 277.754L333.661 277.766L333.67 277.776L335.218 276.51ZM315.688 251.94L317.253 250.696L315.9 248.993L314.317 250.484L315.688 251.94ZM306.168 260.9L304.797 259.444L304.168 260.036V260.9H306.168ZM306.168 274.83L308.163 274.972L308.168 274.901V274.83H306.168ZM305.468 276.44L306.796 277.935L306.84 277.896L306.882 277.854L305.468 276.44ZM302.318 276.44L300.823 277.769L300.901 277.857L300.989 277.935L302.318 276.44ZM302.388 228.63L303.716 230.125L303.76 230.086L303.802 230.044L302.388 228.63ZM305.538 228.63L304.043 229.959L304.121 230.047L304.209 230.125L305.538 228.63ZM306.168 255.58H304.168V260.224L307.542 257.033L306.168 255.58ZM334.448 228.84L335.822 230.293L335.88 230.238L335.934 230.178L334.448 228.84ZM337.388 228.77L335.893 230.099L335.932 230.143L335.974 230.184L337.388 228.77ZM337.388 231.64L338.754 233.101L338.778 233.078L338.802 233.054L337.388 231.64ZM319.048 248.79L317.682 247.329L316.337 248.587L317.479 250.031L319.048 248.79ZM337.009 274.717C337.128 274.886 337.138 274.982 337.138 275.04H341.138C341.138 274.072 340.821 273.187 340.286 272.423L337.009 274.717ZM337.138 275.04C337.138 275.093 337.133 275.124 337.13 275.14C337.127 275.154 337.125 275.156 337.127 275.152C337.128 275.15 337.129 275.148 337.13 275.146C337.132 275.143 337.132 275.143 337.132 275.143C337.132 275.144 337.124 275.154 337.101 275.172L339.634 278.268C340.641 277.445 341.138 276.302 341.138 275.04H337.138ZM337.118 275.158C337.012 275.243 336.918 275.28 336.758 275.28V279.28C337.811 279.28 338.79 278.943 339.617 278.282L337.118 275.158ZM336.758 275.28C336.748 275.28 336.753 275.279 336.767 275.282C336.774 275.284 336.782 275.286 336.79 275.289C336.798 275.292 336.806 275.295 336.812 275.299C336.826 275.306 336.83 275.31 336.823 275.304C336.816 275.298 336.796 275.281 336.766 275.244L333.67 277.776C334.429 278.705 335.49 279.28 336.758 279.28V275.28ZM336.783 275.266L317.253 250.696L314.122 253.184L333.652 277.754L336.783 275.266ZM314.317 250.484L304.797 259.444L307.538 262.356L317.058 253.396L314.317 250.484ZM304.168 260.9V274.83H308.168V260.9H304.168ZM304.173 274.688C304.157 274.914 304.097 274.982 304.054 275.026L306.882 277.854C307.678 277.058 308.085 276.053 308.163 274.972L304.173 274.688ZM304.139 274.945C304.116 274.966 304.087 275 303.928 275V279C304.982 279 305.98 278.661 306.796 277.935L304.139 274.945ZM303.928 275C303.792 275 303.72 274.981 303.692 274.971C303.669 274.963 303.658 274.956 303.646 274.945L300.989 277.935C301.834 278.686 302.869 279 303.928 279V275ZM303.813 275.111C303.802 275.099 303.795 275.089 303.787 275.065C303.777 275.037 303.758 274.966 303.758 274.83H299.758C299.758 275.889 300.072 276.924 300.823 277.769L303.813 275.111ZM303.758 274.83V230.17H299.758V274.83H303.758ZM303.758 230.17C303.758 230.058 303.776 230.03 303.766 230.052C303.762 230.063 303.754 230.078 303.742 230.095C303.731 230.111 303.721 230.121 303.716 230.125L301.059 227.135C300.141 227.951 299.758 229.048 299.758 230.17H303.758ZM303.802 230.044C303.815 230.031 303.822 230.026 303.825 230.025C303.827 230.023 303.829 230.022 303.834 230.02C303.841 230.017 303.887 230 303.998 230V226C302.872 226 301.808 226.381 300.974 227.216L303.802 230.044ZM303.998 230C304.11 230 304.138 230.018 304.115 230.009C304.105 230.004 304.09 229.996 304.073 229.985C304.057 229.973 304.047 229.963 304.043 229.959L307.033 227.301C306.217 226.383 305.12 226 303.998 226V230ZM304.209 230.125C304.205 230.121 304.195 230.111 304.183 230.095C304.171 230.078 304.163 230.063 304.159 230.052C304.15 230.03 304.168 230.058 304.168 230.17H308.168C308.168 229.048 307.784 227.951 306.866 227.135L304.209 230.125ZM304.168 230.17V255.58H308.168V230.17H304.168ZM307.542 257.033L335.822 230.293L333.074 227.387L304.794 254.127L307.542 257.033ZM335.934 230.178C335.959 230.15 335.975 230.138 335.98 230.134C335.985 230.13 335.983 230.132 335.975 230.136C335.967 230.139 335.961 230.141 335.958 230.142C335.956 230.142 335.965 230.14 335.988 230.14V226.14C334.792 226.14 333.745 226.631 332.961 227.502L335.934 230.178ZM335.988 230.14C336.002 230.14 336.002 230.141 335.989 230.139C335.977 230.136 335.958 230.131 335.937 230.121C335.916 230.112 335.9 230.102 335.89 230.094C335.881 230.087 335.882 230.087 335.893 230.099L338.883 227.441C338.131 226.596 337.121 226.14 335.988 226.14V230.14ZM335.974 230.184C336.007 230.217 336.025 230.24 336.033 230.252C336.041 230.264 336.04 230.265 336.036 230.256C336.032 230.246 336.027 230.231 336.023 230.213C336.019 230.194 336.018 230.179 336.018 230.17H340.018C340.018 229.042 339.533 228.087 338.802 227.356L335.974 230.184ZM336.018 230.17C336.018 230.184 336.016 230.188 336.017 230.185C336.018 230.181 336.02 230.175 336.022 230.17C336.024 230.165 336.024 230.166 336.019 230.173C336.013 230.182 336 230.199 335.974 230.226L338.802 233.054C339.572 232.284 340.018 231.295 340.018 230.17H336.018ZM336.022 230.179L317.682 247.329L320.414 250.251L338.754 233.101L336.022 230.179ZM317.479 250.031L337.079 274.811L340.216 272.329L320.616 247.549L317.479 250.031Z" fill="black"/>
<path d="M186.85 42.7001C193.5 45.7501 199.25 51.9001 201.4 59.0501C203.5 66.2001 202.05 74.4001 198.7 81.1001C195.35 87.8501 190.15 93.1501 184.25 99.5501C178.3 105.95 171.65 113.45 165.2 113.2C158.75 112.95 152.5 104.9 145.5 98.8001C138.55 92.7501 130.85 88.7001 126.35 81.9001C121.9 75.1501 120.65 65.6501 124 58.3501C127.3 51.0501 135.2 45.9501 142.8 43.1501C150.4 40.4001 157.7 39.9501 165.15 39.7501C172.6 39.5501 180.2 39.6001 186.85 42.7001Z" fill="#FFE300"/>
<path d="M154 86.6634L157.539 84.5217C158.222 85.7322 158.843 86.7564 160.333 86.7564C161.761 86.7564 162.661 86.1978 162.661 84.025V69.2485H167.007V84.0864C167.007 88.5876 164.368 90.6365 160.519 90.6365C157.042 90.6365 155.024 88.8359 154 86.663" fill="black"/>
<path d="M169.367 86.1976L172.906 84.1488C173.838 85.6701 175.048 86.7875 177.19 86.7875C178.991 86.7875 180.139 85.8872 180.139 84.6455C180.139 83.1554 178.959 82.6277 176.973 81.7588L175.886 81.2928C172.751 79.9582 170.671 78.2819 170.671 74.743C170.671 71.4835 173.154 69 177.035 69C179.798 69 181.784 69.9624 183.212 72.4769L179.829 74.6498C179.083 73.315 178.277 72.7874 177.035 72.7874C175.762 72.7874 174.955 73.5945 174.955 74.6498C174.955 75.9536 175.762 76.4815 177.625 77.2886L178.711 77.7542C182.405 79.3375 184.485 80.9515 184.485 84.5834C184.485 88.495 181.412 90.6367 177.283 90.6367C173.248 90.6367 170.64 88.7122 169.368 86.1976" fill="black"/>
</g>
<defs>
<filter id="filter0_d" x="0" y="0" width="456" height="399.55" filterUnits="userSpaceOnUse" color-interpolation-filters="sRGB">
<feFlood flood-opacity="0" result="BackgroundImageFix"/>
<feColorMatrix in="SourceAlpha" type="matrix" values="0 0 0 0 0 0 0 0 0 0 0 0 0 0 0 0 0 0 127 0"/>
<feOffset dy="4"/>
<feGaussianBlur stdDeviation="12.5"/>
<feColorMatrix type="matrix" values="0 0 0 0 0.529772 0 0 0 0 0.529772 0 0 0 0 0.529772 0 0 0 0.25 0"/>
<feBlend mode="normal" in2="BackgroundImageFix" result="effect1_dropShadow"/>
<feBlend mode="normal" in="SourceGraphic" in2="effect1_dropShadow" result="shape"/>
</filter>
<linearGradient id="paint0_linear" x1="381.017" y1="166.703" x2="381.017" y2="124.816" gradientUnits="userSpaceOnUse">
<stop stop-color="#006DF0"/>
<stop offset="1" stop-color="#00E7F0"/>
</linearGradient>
<linearGradient id="paint1_linear" x1="381.017" y1="166.703" x2="381.017" y2="124.816" gradientUnits="userSpaceOnUse">
<stop stop-color="#006DF0"/>
<stop offset="1" stop-color="#00E7F0"/>
</linearGradient>
</defs>
</svg>
