<svg width="95" height="102" viewBox="0 0 95 102" fill="none" xmlns="http://www.w3.org/2000/svg">
<path d="M47.5 101.811C46.0248 101.811 44.648 101.437 43.3696 100.782L30.2899 93.3928C28.323 92.3639 29.3064 91.9898 29.8965 91.8027C32.5518 90.9609 33.0435 90.7739 35.7971 89.2773C36.0921 89.0903 36.4855 89.1838 36.7805 89.3709L46.8116 95.0764C47.205 95.2635 47.6967 95.2635 47.9917 95.0764L87.2309 73.4702C87.6242 73.2832 87.8209 72.909 87.8209 72.4414V29.3226C87.8209 28.855 87.6242 28.4808 87.2309 28.2938L47.9917 6.78115C47.5983 6.59408 47.1066 6.59408 46.8116 6.78115L7.57246 28.2938C7.17909 28.4808 6.9824 28.9485 6.9824 29.3226V72.4414C6.9824 72.8155 7.17909 73.2832 7.57246 73.4702L18.2919 79.3628C24.0942 82.1688 27.7329 78.8952 27.7329 75.6215V33.0639C27.7329 32.5027 28.2246 31.9415 28.913 31.9415H33.9286C34.5186 31.9415 35.1087 32.4092 35.1087 33.0639V75.6215C35.1087 83.0106 30.8799 87.3131 23.5041 87.3131C21.2422 87.3131 19.472 87.3131 14.4565 84.9748L4.13043 79.3628C1.5735 77.9598 0 75.3409 0 72.5349V29.4162C0 26.6102 1.5735 23.9912 4.13043 22.5882L43.3696 0.982097C45.8282 -0.327366 49.1718 -0.327366 51.6304 0.982097L90.8696 22.5882C93.4265 23.9912 95 26.6102 95 29.4162V72.5349C95 75.3409 93.4265 77.9598 90.8696 79.3628L51.6304 100.969C50.352 101.53 48.8768 101.811 47.5 101.811ZM59.5963 72.1608C42.3861 72.1608 38.8458 64.6781 38.8458 58.3179C38.8458 57.7567 39.3375 57.1955 40.0259 57.1955H45.1398C45.7298 57.1955 46.2215 57.5696 46.2215 58.1308C47.0083 63.0881 49.2702 65.5199 59.6946 65.5199C67.9555 65.5199 71.4959 63.7428 71.4959 59.5338C71.4959 57.1019 70.5124 55.3248 57.6294 54.1089C46.9099 53.08 40.2226 50.8352 40.2226 42.6979C40.2226 35.1217 46.9099 30.6321 58.1211 30.6321C70.7091 30.6321 76.9048 34.7475 77.6915 43.7267C77.6915 44.0073 77.5932 44.2879 77.3965 44.5685C77.1998 44.7556 76.9048 44.9426 76.6097 44.9426H71.4959C71.0041 44.9426 70.5124 44.5685 70.4141 44.1008C69.234 38.9565 66.1853 37.2729 58.1211 37.2729C49.0735 37.2729 47.9917 40.266 47.9917 42.5108C47.9917 45.2232 49.2702 46.065 61.4648 47.5616C73.5611 49.0581 79.265 51.2094 79.265 59.2532C79.1667 67.4841 72.0859 72.1608 59.5963 72.1608Z" fill="#539E43"/>
</svg>
