<svg width="102" height="102" viewBox="0 0 102 102" fill="none" xmlns="http://www.w3.org/2000/svg">
<path d="M51.043 42.4999C46.3489 42.4999 42.543 46.3058 42.543 50.9999C42.543 55.694 46.3489 59.4999 51.043 59.4999C55.7379 59.4999 59.543 55.694 59.543 50.9999C59.538 46.3074 55.7354 42.5057 51.043 42.4999ZM51.043 56.0999C48.2265 56.0999 45.943 53.8163 45.943 50.9999C45.943 48.1834 48.2265 45.8999 51.043 45.8999C53.8603 45.8999 56.143 48.1834 56.143 50.9999C56.143 53.8163 53.8603 56.0999 51.043 56.0999Z" fill="url(#paint0_linear)"/>
<path d="M80.6238 51C83.1787 48.8401 85.6067 46.5342 87.8961 44.0946C95.1667 36.2304 97.6985 29.799 95.2165 25.5C91.6464 19.3242 79.6542 20.4697 65.8401 25.3796C63.1797 10.962 58.1735 0 51.0431 0C43.9136 0 38.9074 10.962 36.2536 25.3813C22.4394 20.4714 10.4423 19.3259 6.87713 25.5C4.3952 29.799 6.92694 36.2304 14.1976 44.0946C16.4853 46.5342 18.9108 48.8393 21.4633 51C18.9083 53.1599 16.4803 55.4658 14.191 57.9054C6.92528 65.7696 4.39354 72.201 6.87547 76.5C8.57547 79.4476 12.1988 80.7276 17.0232 80.7276C23.6132 80.4047 30.1077 79.0168 36.2536 76.617C38.9074 91.038 43.9136 102 51.0431 102C58.1735 102 63.1797 91.038 65.8334 76.6187C71.9793 79.0168 78.473 80.4047 85.0622 80.7276C89.8849 80.7276 93.5074 79.4459 95.2099 76.5C97.6918 72.201 95.1601 65.7696 87.8894 57.9054C85.6017 55.4658 83.1762 53.1607 80.6238 51ZM92.2722 27.2C93.8635 29.9575 91.2944 35.4111 85.4009 41.7861C83.0667 44.2697 80.5864 46.6105 77.9717 48.797C74.8331 46.2727 71.4149 43.77 67.7459 41.3454C67.4795 37.0414 67.0321 32.8014 66.4128 28.7655C80.1133 23.8473 90.1024 23.4597 92.2664 27.2H92.2722ZM57.8431 62.778C55.538 64.1061 53.2719 65.3421 51.0431 66.4868C48.8177 65.3446 46.5507 64.1078 44.2431 62.778C41.967 61.4631 39.7706 60.1018 37.6307 58.7214C37.5062 56.2295 37.4431 53.6554 37.4431 51C37.4431 48.3446 37.5062 45.7705 37.6307 43.2786C39.7706 41.8982 41.967 40.5369 44.2431 39.222C46.5466 37.8931 48.8135 36.6571 51.0431 35.5149C53.2702 36.6604 55.5413 37.8947 57.8431 39.222C60.12 40.5369 62.3164 41.8982 64.4563 43.2786C64.5808 45.7705 64.6431 48.3446 64.6431 51C64.6431 53.6554 64.5808 56.2295 64.4563 58.7214C62.3164 60.1018 60.12 61.4631 57.8431 62.778ZM64.1899 62.9291C63.9417 66.1265 63.598 69.1613 63.1697 72.0118C60.4869 70.9526 57.6854 69.7324 54.7901 68.347C56.388 67.497 57.9759 66.6246 59.5381 65.7239C61.1003 64.8225 62.67 63.8762 64.1899 62.9291ZM47.292 68.3403C44.4016 69.7241 41.5951 70.9459 38.9123 72.0051C38.489 69.1546 38.1453 66.1199 37.8922 62.9224C39.412 63.8687 40.961 64.8 42.5381 65.7173C44.1061 66.6246 45.6932 67.4903 47.292 68.3403ZM34.1402 56.3938C31.5529 54.6225 29.1099 52.8245 26.8098 51C29.1041 49.1788 31.5471 47.3784 34.1402 45.5995C34.0788 47.4008 34.0431 49.2045 34.0431 51C34.0431 52.7955 34.0788 54.5992 34.1402 56.4005V56.3938ZM37.8972 39.0643C38.1453 35.8685 38.489 32.8354 38.9173 29.9866C41.5968 31.0441 44.395 32.266 47.2862 33.648C45.6908 34.4956 44.1111 35.3696 42.5489 36.2694C40.9643 37.1875 39.4137 38.1213 37.8972 39.0709V39.0643ZM54.7992 33.6597C57.6887 32.2759 60.4935 31.0557 63.1747 29.9965C63.598 32.847 63.9417 35.8818 64.1949 39.0793C62.6717 38.1263 61.1211 37.1917 59.5431 36.2761C57.9826 35.3754 56.3971 34.5097 54.7992 33.6597ZM67.9468 45.6078C70.5342 47.3775 72.9771 49.1755 75.2772 51C72.9829 52.8204 70.54 54.6208 67.9468 56.4005C68.0074 54.5992 68.0431 52.7955 68.0431 51C68.0431 49.2045 68.0074 47.4008 67.9468 45.5995V45.6078ZM51.0431 3.4C55.3703 3.4 60.0262 12.252 62.6119 26.5791C58.8076 28.06 54.9096 29.794 51.0522 31.7173C47.1866 29.794 43.286 28.06 39.4917 26.5791C42.0608 12.2536 46.7167 3.4 51.0431 3.4ZM16.692 41.7861C10.7976 35.4111 8.22933 29.9575 9.82059 27.2C10.781 25.5374 13.2795 24.689 16.9601 24.689C23.3791 25.0269 29.701 26.4048 35.6792 28.7688C35.0599 32.798 34.6134 37.0364 34.3461 41.3387C30.6771 43.7634 27.2589 46.2686 24.1203 48.7903C21.5064 46.6064 19.0253 44.2672 16.692 41.7861ZM9.82059 74.8C8.22933 72.0425 10.7976 66.5889 16.692 60.2139C19.0253 57.7303 21.5056 55.3895 24.1203 53.203C27.2589 55.7273 30.6771 58.23 34.3461 60.6546C34.6134 64.9586 35.0599 69.1986 35.6792 73.2345C21.9738 78.1527 11.9846 78.5403 9.82059 74.8ZM51.0431 98.6C46.7167 98.6 42.0625 89.748 39.4834 75.4226C43.286 73.9417 47.1866 72.2077 51.0522 70.2852C54.9179 72.2077 58.8176 73.9417 62.6202 75.4226C60.0245 89.748 55.3703 98.6 51.0431 98.6ZM92.2664 74.8C90.1041 78.5403 80.1083 78.1527 66.4078 73.2295C67.0271 69.1986 67.4737 64.9586 67.7409 60.6488C71.4099 58.225 74.8282 55.719 77.9667 53.198C80.5814 55.3836 83.0617 57.7253 85.3951 60.2089C91.2894 66.5889 93.8577 72.0425 92.2664 74.8Z" fill="url(#paint1_linear)"/>
<defs>
<linearGradient id="paint0_linear" x1="51.0434" y1="101.242" x2="51.0434" y2="-5.5693" gradientUnits="userSpaceOnUse">
<stop stop-color="#006DF0"/>
<stop offset="1" stop-color="#00E7F0"/>
</linearGradient>
<linearGradient id="paint1_linear" x1="51.0435" y1="101.242" x2="51.0435" y2="-5.5692" gradientUnits="userSpaceOnUse">
<stop stop-color="#006DF0"/>
<stop offset="1" stop-color="#00E7F0"/>
</linearGradient>
</defs>
</svg>
