<svg width="627" height="489" viewBox="0 0 627 489" fill="none" xmlns="http://www.w3.org/2000/svg">
<path d="M284.264 64.4175C284.264 64.579 261.676 64.7175 233.796 64.7175C205.916 64.7175 183.328 64.579 183.328 64.4175C183.328 64.2559 205.916 64.1174 233.796 64.1174C261.676 64.1174 284.264 64.2559 284.264 64.4175Z" fill="#263238"/>
<path d="M87.1661 103.423H20.6575V214.957H87.1661V103.423Z" fill="#F5F5F5"/>
<path d="M161.572 103.423H89.7168V214.957H161.572V103.423Z" fill="#F5F5F5"/>
<path d="M161.572 222.746H89.7168V330.507H161.572V222.746Z" fill="#F5F5F5"/>
<path d="M170.793 101.496H246.468V2.55155H249.032V101.496H310.617V0.358948H170.793V101.496Z" fill="#F5F5F5"/>
<path d="M310.617 103.423H249.032V214.957H310.617V103.423Z" fill="#F5F5F5"/>
<path d="M310.617 222.746H249.032V330.507H310.617V222.746Z" fill="#F5F5F5"/>
<path d="M87.1661 222.746H20.6575V330.507H87.1661V222.746Z" fill="#F5F5F5"/>
<path d="M246.468 222.746H170.793V330.507H246.468V222.746Z" fill="#F5F5F5"/>
<path d="M87.1661 332.446H20.6575V429.555H87.1661V332.446Z" fill="#F5F5F5"/>
<path d="M310.617 332.446H249.032V429.555H310.617V332.446Z" fill="#F5F5F5"/>
<path d="M87.1661 101.496V2.55155H89.7168V101.496H161.586V0.358948H20.6575V101.496H87.1661Z" fill="#F5F5F5"/>
<path d="M246.468 332.446H170.793V429.555H246.468V332.446Z" fill="#F5F5F5"/>
<path d="M161.572 332.446H89.7168V429.555H161.572V332.446Z" fill="#F5F5F5"/>
<path d="M246.468 103.423H170.793V214.957H246.468V103.423Z" fill="#F5F5F5"/>
<path d="M572.082 18.5575H413.23C413.14 18.5575 413.067 18.6195 413.067 18.696V218.857C413.067 218.934 413.14 218.996 413.23 218.996H572.082C572.172 218.996 572.245 218.934 572.245 218.857V18.696C572.245 18.6195 572.172 18.5575 572.082 18.5575Z" fill="#F5F5F5"/>
<path d="M573.923 220.554H411.375C411.335 220.554 411.297 220.54 411.269 220.516C411.241 220.493 411.225 220.46 411.225 220.427V17.1266C411.225 17.0929 411.241 17.0606 411.269 17.0368C411.297 17.013 411.335 16.9996 411.375 16.9996H573.923C573.944 16.998 573.965 17.0001 573.985 17.0057C574.005 17.0114 574.023 17.0205 574.038 17.0325C574.054 17.0444 574.066 17.0589 574.074 17.0752C574.083 17.0914 574.087 17.1089 574.087 17.1266V220.427C574.087 220.444 574.083 220.462 574.074 220.478C574.066 220.494 574.054 220.509 574.038 220.521C574.023 220.533 574.005 220.542 573.985 220.548C573.965 220.553 573.944 220.555 573.923 220.554ZM415.072 217.438H570.24C570.284 217.438 570.325 217.423 570.356 217.397C570.387 217.371 570.404 217.336 570.404 217.299V20.2539C570.404 20.2172 570.387 20.1819 570.356 20.156C570.325 20.13 570.284 20.1154 570.24 20.1154H415.072C415.028 20.1154 414.987 20.13 414.956 20.156C414.925 20.1819 414.908 20.2172 414.908 20.2539V217.299C414.908 217.336 414.925 217.371 414.956 217.397C414.987 217.423 415.028 217.438 415.072 217.438Z" fill="#EBEBEB"/>
<path d="M556.328 30.9169H429.257C429.167 30.9169 429.094 30.9789 429.094 31.0553V206.359C429.094 206.436 429.167 206.498 429.257 206.498H556.328C556.418 206.498 556.491 206.436 556.491 206.359V31.0553C556.491 30.9789 556.418 30.9169 556.328 30.9169Z" fill="white"/>
<path d="M528.352 80.7004H456.974C456.929 80.7004 456.892 80.7314 456.892 80.7697V151.568C456.892 151.606 456.929 151.637 456.974 151.637H528.352C528.397 151.637 528.434 151.606 528.434 151.568V80.7697C528.434 80.7314 528.397 80.7004 528.352 80.7004Z" fill="#EBEBEB"/>
<path d="M522.76 142.947C522.855 143.178 519.322 144.494 512.598 143.824C508.469 143.367 504.543 142.037 501.181 139.958C496.612 137.078 493.456 132.876 492.315 128.153C491.654 125.19 491.937 122.132 493.135 119.292C494.334 116.453 496.405 113.935 499.135 111.997C500.675 110.911 502.417 110.049 504.291 109.447C506.341 108.802 508.546 108.588 510.715 108.823C513.106 109.016 515.361 109.849 517.154 111.201C518.162 111.997 518.922 112.993 519.365 114.098C519.808 115.204 519.92 116.385 519.691 117.536C519.204 119.616 517.97 121.519 516.158 122.983C514.542 124.321 512.704 125.453 510.702 126.341C506.755 128.193 502.36 129.255 497.853 129.445C493.083 129.665 488.336 128.754 484.145 126.814C479.819 124.778 476.309 121.696 474.065 117.963C471.737 114.15 471.094 109.759 472.251 105.581C473.395 101.542 476.115 97.9485 479.971 95.3793C481.896 94.1158 484.091 93.1793 486.436 92.6212C488.814 92.0835 491.306 92.0164 493.72 92.425C496.268 92.838 498.586 93.9443 500.322 95.5755C501.996 97.245 502.915 99.3637 502.913 101.553C502.943 103.545 502.35 105.507 501.195 107.242C500.129 108.819 498.744 110.225 497.103 111.397C494.144 113.519 490.691 115.092 486.968 116.013C483.508 116.869 479.875 117.105 476.302 116.705C472.976 116.322 469.801 115.291 467.026 113.693C464.632 112.364 462.602 110.617 461.073 108.569C459.543 106.52 458.55 104.219 458.16 101.819C457.694 98.1961 458.868 94.5586 461.448 91.6403C462.988 89.8262 465.088 88.405 467.518 87.5321C469.195 87.0012 470.15 87.0243 470.246 87.1513C470.341 87.2782 469.482 87.659 468.131 88.4207C466.206 89.5419 464.594 91.0074 463.412 92.7135C461.553 95.3233 460.865 98.4116 461.475 101.415C461.951 103.347 462.897 105.175 464.251 106.782C465.606 108.389 467.341 109.74 469.345 110.751C471.781 111.948 474.497 112.683 477.302 112.902C480.108 113.121 482.936 112.82 485.591 112.02C488.611 111.223 491.399 109.898 493.775 108.131C494.932 107.36 495.874 106.382 496.532 105.266C497.19 104.151 497.548 102.926 497.58 101.68C497.587 100.534 497.09 99.4259 496.185 98.5726C495.28 97.7194 494.031 97.1816 492.683 97.0641C491.127 96.827 489.528 96.8901 488.005 97.2488C486.405 97.6605 484.911 98.322 483.599 99.199C480.804 101.107 478.845 103.752 478.034 106.712C477.212 109.75 477.696 112.937 479.398 115.701C481.115 118.55 483.792 120.903 487.091 122.464C490.322 123.977 493.987 124.7 497.676 124.552C501.32 124.423 504.882 123.598 508.097 122.141C509.613 121.486 511.014 120.655 512.257 119.671C513.279 118.897 514.009 117.886 514.357 116.763C514.453 116.349 514.426 115.922 514.278 115.519C514.131 115.116 513.867 114.75 513.512 114.455C512.531 113.727 511.305 113.279 510.006 113.174C508.635 112.989 507.231 113.088 505.914 113.462C504.548 113.864 503.27 114.457 502.136 115.217C499.981 116.664 498.314 118.567 497.304 120.732C496.293 122.898 495.975 125.25 496.38 127.553C497.142 131.536 499.561 135.158 503.2 137.766C506.048 139.767 509.405 141.185 513.007 141.909C519.077 143.109 522.719 142.52 522.76 142.947Z" fill="#E0E0E0"/>
<path d="M211.304 116.555H119.916C113.591 116.555 107.525 118.68 103.052 122.463C98.578 126.245 96.063 131.376 96.0594 136.727V174.89C96.054 177.547 96.6689 180.179 97.8688 182.635C99.0687 185.091 100.83 187.322 103.052 189.2C105.273 191.079 107.911 192.568 110.815 193.582C113.718 194.595 116.829 195.114 119.97 195.108H187.897L199.628 211.564L210.608 195.108H211.304C214.441 195.109 217.547 194.587 220.445 193.571C223.343 192.555 225.975 191.066 228.191 189.188C230.407 187.309 232.164 185.08 233.36 182.626C234.555 180.173 235.167 177.544 235.16 174.89V136.727C235.16 134.077 234.543 131.453 233.344 129.005C232.145 126.557 230.387 124.333 228.172 122.459C225.956 120.586 223.326 119.1 220.432 118.087C217.538 117.074 214.436 116.554 211.304 116.555Z" fill="white"/>
<path d="M211.304 116.555C211.304 116.555 211.495 116.555 211.863 116.555H213.541C214.277 116.555 215.177 116.728 216.269 116.878C217.504 117.099 218.717 117.4 219.897 117.778C223.192 118.826 226.169 120.482 228.613 122.625C230.153 123.988 231.474 125.517 232.541 127.172C233.72 129.059 234.54 131.092 234.969 133.196C235.359 135.542 235.492 137.914 235.365 140.281C235.365 142.751 235.365 145.336 235.365 148.025C235.365 153.414 235.365 159.242 235.365 165.45C235.365 168.528 235.365 171.732 235.365 175.063C235.308 178.506 234.234 181.882 232.241 184.884C231.191 186.434 229.918 187.869 228.449 189.153C226.929 190.45 225.214 191.571 223.348 192.488C221.447 193.439 219.393 194.15 217.251 194.6C216.162 194.841 215.054 195.019 213.936 195.131C212.818 195.212 211.672 195.27 210.553 195.27L210.826 195.131C207.375 200.336 203.665 205.886 199.914 211.599L199.628 212.014L199.341 211.61C195.618 206.406 191.648 200.843 187.597 195.154L187.884 195.293H119.684C115.842 195.241 112.069 194.431 108.663 192.927C105.348 191.441 102.487 189.323 100.305 186.742C98.1224 184.161 96.6784 181.186 96.0866 178.052L95.882 176.898L95.8138 175.744C95.8138 174.971 95.8138 174.209 95.8138 173.436V168.901C95.8138 165.9 95.8138 162.923 95.8138 159.969V142.659C95.8138 141.251 95.8138 139.854 95.8138 138.47C95.7843 137.079 95.8435 135.689 95.9911 134.304C96.3562 131.567 97.3823 128.924 99.0055 126.537C102.122 121.939 107.22 118.54 113.232 117.051C113.955 116.901 114.678 116.717 115.401 116.601L117.597 116.336C119.07 116.255 120.529 116.209 121.948 116.232H130.35H146.145L193.885 116.324H206.857H210.226C210.99 116.324 211.372 116.324 211.372 116.324H210.226H206.857L193.885 116.382L146.145 116.474H130.35H119.793L117.651 116.567L115.51 116.832C114.801 116.948 114.146 117.132 113.396 117.271C108.952 118.371 104.991 120.554 102.007 123.549C99.0226 126.544 97.1484 130.216 96.6185 134.108C96.462 135.588 96.4028 137.076 96.4412 138.562V142.751C96.4412 148.383 96.4412 154.153 96.4412 160.061C96.4412 163.015 96.4412 165.993 96.4412 168.993V173.528C96.4412 174.29 96.4412 175.051 96.4412 175.836V176.99L96.6458 178.144C97.2251 181.194 98.6361 184.087 100.767 186.595C102.898 189.103 105.69 191.156 108.922 192.592C112.223 194.05 115.879 194.841 119.602 194.9H187.993L188.102 195.039L199.819 211.506H199.246C203.065 205.806 206.775 200.255 210.24 195.05L210.335 194.923H210.608C211.74 194.923 212.831 194.923 213.923 194.796C215.009 194.689 216.085 194.515 217.142 194.277C219.235 193.845 221.243 193.157 223.102 192.235C224.922 191.338 226.596 190.244 228.081 188.98C229.517 187.732 230.764 186.336 231.791 184.826C233.748 181.897 234.803 178.6 234.86 175.236C234.86 171.947 234.86 168.739 234.86 165.635C234.86 159.426 234.86 153.599 234.86 148.209C234.86 145.521 234.86 142.936 234.86 140.466C234.995 138.119 234.876 135.767 234.505 133.438C233.742 129.5 231.577 125.853 228.299 122.983C225.903 120.84 222.972 119.176 219.72 118.113C218.554 117.734 217.361 117.422 216.146 117.178C215.082 117.028 214.182 116.89 213.418 116.821L211.754 116.728L211.304 116.555Z" fill="#263238"/>
<path d="M216.064 137.281C216.064 137.454 193.476 137.581 165.596 137.581C137.716 137.581 115.128 137.454 115.128 137.281C115.128 137.108 137.716 136.981 165.596 136.981C193.476 136.981 216.064 137.119 216.064 137.281Z" fill="#263238"/>
<path d="M216.064 146.548C216.064 146.709 193.476 146.848 165.596 146.848C137.716 146.848 115.128 146.709 115.128 146.548C115.128 146.386 137.716 146.248 165.596 146.248C193.476 146.248 216.064 146.375 216.064 146.548Z" fill="#263238"/>
<path d="M216.064 155.803C216.064 155.976 193.476 156.103 165.596 156.103C137.716 156.103 115.128 155.976 115.128 155.803C115.128 155.63 137.716 155.503 165.596 155.503C193.476 155.503 216.064 155.641 216.064 155.803Z" fill="#263238"/>
<path d="M216.064 165.104C216.064 165.266 193.476 165.404 165.596 165.404C137.716 165.404 115.128 165.266 115.128 165.104C115.128 164.942 137.716 164.804 165.596 164.804C193.476 164.804 216.064 164.908 216.064 165.104Z" fill="#263238"/>
<path d="M216.064 174.336C216.064 174.509 193.476 174.648 165.596 174.648C137.716 174.648 115.128 174.509 115.128 174.336C115.128 174.163 137.716 174.036 165.596 174.036C193.476 174.036 216.064 174.163 216.064 174.336Z" fill="#263238"/>
<path d="M282.477 42.9185H179.4C174.634 42.9185 170.063 44.5193 166.692 47.3692C163.321 50.2191 161.426 54.0848 161.422 58.1166V88.79C161.422 92.8238 163.316 96.6925 166.688 99.5449C170.059 102.397 174.632 104 179.4 104H253.206L264.936 120.456L275.848 104H282.409C287.177 104 291.75 102.397 295.121 99.5449C298.492 96.6925 300.386 92.8238 300.386 88.79V58.1166C300.383 54.0947 298.497 50.2378 295.14 47.3895C291.784 44.5413 287.231 42.9337 282.477 42.9185Z" fill="white"/>
<path d="M282.477 42.9185C282.477 42.9185 283.091 42.9185 284.291 42.9185C286.06 43.0667 287.796 43.4241 289.447 43.9802C292.084 44.9215 294.421 46.3766 296.267 48.2269C297.484 49.4152 298.494 50.7441 299.268 52.1735C300.061 53.7962 300.522 55.5209 300.632 57.2742C300.755 64.6252 300.714 73.5341 300.755 83.8162C300.755 85.0856 300.755 86.3896 300.755 87.7167C300.795 89.0731 300.681 90.4295 300.414 91.7673C299.776 94.571 298.227 97.1687 295.94 99.2683C294.749 100.371 293.37 101.316 291.848 102.073C290.316 102.867 288.645 103.451 286.897 103.804C285.999 103.992 285.088 104.127 284.169 104.207C283.255 104.207 282.327 104.3 281.441 104.288H275.903L276.162 104.161L265.25 120.629L264.977 121.033L264.691 120.64C260.967 115.424 257.011 109.874 252.933 104.184L253.233 104.323H179.932C176.342 104.411 172.8 103.609 169.743 102.015C166.728 100.441 164.324 98.1539 162.827 95.437C161.411 92.7587 160.81 89.8227 161.081 86.8974V70.0605C161.081 67.314 161.081 64.6214 161.081 61.9825C161.081 60.6324 161.081 59.3053 161.081 57.9782C161.101 56.6353 161.331 55.3006 161.763 54.0084C162.608 51.4619 164.204 49.1389 166.401 47.2575C168.571 45.456 171.217 44.1187 174.121 43.357C175.546 43.006 177.016 42.8006 178.499 42.7454C179.973 42.6761 181.377 42.7454 182.81 42.7454H191.212H221.834L266.191 42.8492H278.249H281.386C282.095 42.8492 282.45 42.8492 282.45 42.8492H281.386H278.249H266.191L221.834 42.9416H191.212H182.81C179.951 42.7887 177.081 43.0027 174.298 43.5763C171.505 44.3881 168.986 45.7624 166.96 47.5806C164.841 49.3989 163.302 51.6422 162.486 54.1007C161.613 56.5703 161.859 59.236 161.831 61.9248V70.0028C161.831 75.4882 161.831 81.0812 161.831 86.782C161.767 88.1964 161.84 89.6129 162.05 91.0172C162.296 92.4211 162.788 93.7863 163.509 95.0677C164.959 97.6757 167.271 99.8722 170.165 101.392C173.105 102.951 176.517 103.753 179.986 103.7H253.451L253.547 103.838L265.168 120.317H264.609L275.603 103.861L275.698 103.734H281.413C282.341 103.734 283.227 103.734 284.141 103.665C285.019 103.591 285.89 103.463 286.747 103.284C288.438 102.946 290.054 102.381 291.534 101.611C293.001 100.883 294.33 99.9731 295.476 98.9105C297.705 96.8749 299.217 94.3528 299.841 91.6288C300.111 90.3224 300.225 88.9963 300.182 87.6706C300.182 86.3435 300.182 85.0395 300.182 83.7701C300.182 73.5225 300.277 64.5906 300.182 57.2281C300.063 55.5057 299.602 53.8126 298.818 52.2197C298.098 50.8296 297.157 49.5289 296.022 48.3538C294.201 46.5057 291.886 45.0502 289.27 44.1071C287.108 43.3714 284.807 42.9689 282.477 42.9185Z" fill="#263238"/>
<path d="M284.264 73.6726C284.264 73.8457 261.676 73.9726 233.796 73.9726C205.916 73.9726 183.328 73.8457 183.328 73.6726C183.328 73.4995 205.916 73.3726 233.796 73.3726C261.676 73.3726 284.264 73.511 284.264 73.6726Z" fill="#263238"/>
<path d="M284.264 82.9392C284.264 83.1008 261.676 83.2392 233.796 83.2392C205.916 83.2392 183.328 83.1008 183.328 82.9392C183.328 82.7776 205.916 82.6392 233.796 82.6392C261.676 82.6392 284.264 82.7776 284.264 82.9392Z" fill="#263238"/>
<path d="M502.504 287.336C501.208 286.032 499.517 284.843 499.094 283.17C498.671 281.496 499.612 279.962 500.022 278.358C500.511 276.098 500.049 273.765 498.716 271.764C497.382 269.764 495.262 268.221 492.724 267.406C489.778 266.552 486 266.483 484.54 264.163C483.081 261.844 484.936 259.213 486.027 256.801C486.911 254.787 487.264 252.635 487.061 250.494C486.858 248.353 486.105 246.276 484.854 244.407C484.502 243.555 484.088 242.722 483.613 241.914C481.769 238.793 478.966 236.15 475.498 234.261C472.029 232.373 468.024 231.309 463.903 231.182C463.263 228.649 461.777 226.324 459.623 224.484C457.469 222.643 454.737 221.363 451.75 220.796C451.766 218.923 451.262 217.073 450.276 215.395C447.398 210.652 441.274 207.779 435.054 206.925C430.533 206.339 425.912 206.669 421.571 207.886C417.23 209.104 413.291 211.175 410.079 213.93C406.642 216.919 403.86 220.854 399.167 222.192C395.075 223.346 390.547 222.308 386.25 222.781C380.494 223.416 375.557 226.878 372.61 231.101C369.664 235.325 368.436 240.264 367.754 245.145C367.127 249.623 366.718 254.539 363.049 257.839C359.38 261.14 353.801 261.705 349.409 263.967C341.034 268.237 338.319 278.796 343.844 285.616C345.603 287.797 348.14 289.794 348.345 292.425C348.522 294.825 346.694 296.96 345.835 299.257C343.625 305.165 349.34 312.193 356.652 312.551C360.348 312.724 364.304 311.512 367.564 312.908C370.823 314.305 372.078 317.651 374.179 320.202C376.348 322.665 379.453 324.423 382.972 325.179C386.491 325.936 390.211 325.645 393.507 324.356C396.235 323.202 398.799 321.367 401.814 321.54C404.828 321.713 407.201 323.848 410.161 324.368C414.049 325.002 417.731 322.59 420.037 319.878C422.342 317.167 423.951 313.958 426.857 311.731C430.717 308.823 436.145 308.108 441.042 306.677C448.083 304.582 454.3 300.88 459.006 295.979L458.529 319.059C462.621 319.059 464.939 317.905 466.44 316.093C467.283 316.581 468.201 316.969 469.168 317.247C471.577 317.877 474.155 317.873 476.561 317.237C478.967 316.6 481.089 315.36 482.644 313.682C484.213 311.904 485.195 309.631 487.418 308.477C489.369 307.461 491.81 307.542 494.061 307.196C496.547 306.813 498.87 305.884 500.798 304.503C502.725 303.121 504.19 301.335 505.045 299.324C505.9 297.312 506.116 295.146 505.67 293.042C505.224 290.938 504.132 288.97 502.504 287.336Z" fill="#263238"/>
<path d="M411.034 233.455C405.387 236.467 392.566 249.727 392.32 253.627L393.684 332.942C393.466 338.908 392.32 344.032 396.412 348.879C407.842 360.419 434.29 361.838 440.333 352.341C440.74 351.735 441.065 351.092 441.301 350.425C441.52 349.783 441.698 349.132 441.833 348.475C442.832 344.13 443.289 339.709 443.197 335.284C443.988 327.53 444.261 324.344 444.261 324.425C444.261 324.506 463.848 322.914 469.727 301.818C472.66 291.317 473.546 273.868 473.737 259.57C473.654 256.76 472.975 253.985 471.732 251.377C464.462 234.921 447.739 226.935 427.648 228.389C422.56 228.747 414.853 230.651 411.034 233.455Z" fill="#FFBF9D"/>
<path d="M444.861 289.378C444.861 289.217 447.057 289.032 450.59 288.87C451.49 288.87 452.35 288.755 452.541 288.247C452.698 287.462 452.56 286.654 452.145 285.939C451.463 284.07 450.781 282.096 450.017 280.042C447.071 271.653 445.025 264.775 445.421 264.683C445.816 264.59 448.53 271.307 451.463 279.685C452.172 281.754 452.845 283.727 453.482 285.605C453.957 286.547 454.029 287.6 453.686 288.582C453.533 288.841 453.313 289.067 453.041 289.243C452.769 289.419 452.453 289.54 452.118 289.597C451.616 289.685 451.101 289.712 450.59 289.678C447.057 289.736 444.861 289.551 444.861 289.378Z" fill="#263238"/>
<path d="M444.207 324.414C432.323 323.815 420.868 320.44 411.116 314.662C411.116 314.662 418.318 329.976 443.756 329.561L444.207 324.414Z" fill="#FF9A6C"/>
<path d="M442.761 296.395C442.155 295.652 441.337 295.051 440.383 294.648C439.429 294.244 438.37 294.051 437.305 294.087C436.534 294.1 435.774 294.245 435.071 294.512C434.368 294.78 433.736 295.165 433.213 295.644C432.708 296.102 432.382 296.679 432.277 297.298C432.172 297.917 432.294 298.548 432.626 299.106C433.14 299.669 433.839 300.09 434.635 300.316C435.432 300.542 436.29 300.563 437.1 300.376C438.791 299.988 440.372 299.317 441.751 298.403C442.164 298.189 442.529 297.916 442.829 297.595C442.97 297.44 443.054 297.253 443.068 297.057C443.083 296.862 443.028 296.667 442.911 296.498" fill="#FF9A6C"/>
<path d="M434.427 290.775C435 290.775 434.727 293.983 437.769 296.464C440.81 298.945 444.861 298.829 444.848 299.28C444.848 299.487 443.893 299.845 442.12 299.776C439.901 299.669 437.799 298.9 436.186 297.606C434.644 296.359 433.73 294.655 433.636 292.852C433.677 291.513 434.168 290.74 434.427 290.775Z" fill="#263238"/>
<path d="M433.799 258.74C433.377 259.524 429.939 258.924 425.82 259.086C421.701 259.247 418.304 259.974 417.827 259.224C417.609 258.867 418.25 258.151 419.655 257.459C421.516 256.619 423.58 256.15 425.688 256.086C427.796 256.022 429.894 256.365 431.822 257.089C433.281 257.689 433.977 258.37 433.799 258.74Z" fill="#263238"/>
<path d="M468.527 258.728C467.736 259.351 464.939 258.486 461.502 258.232C458.065 257.978 455.105 258.289 454.491 257.539C454.232 257.182 454.75 256.547 456.073 255.993C457.896 255.308 459.904 255.052 461.884 255.254C463.851 255.392 465.736 255.978 467.34 256.951C468.54 257.712 468.881 258.428 468.527 258.728Z" fill="#263238"/>
<path d="M397.394 281.196C397.531 279.615 395.689 275.726 393.848 275.369C388.951 274.399 379.99 274.215 378.967 284.82C377.603 299.372 395.13 297.514 395.212 297.133C395.294 296.752 396.93 286.689 397.394 281.196Z" fill="#FFBF9D"/>
<path d="M390.479 291.271C390.41 291.213 390.165 291.421 389.633 291.582C388.898 291.793 388.095 291.752 387.396 291.467C385.623 290.786 384.327 288.236 384.504 285.605C384.579 284.356 384.985 283.137 385.691 282.039C385.891 281.593 386.216 281.196 386.64 280.883C387.063 280.569 387.571 280.347 388.119 280.239C388.472 280.184 388.836 280.236 389.147 280.386C389.459 280.536 389.699 280.774 389.824 281.058C390.015 281.485 389.824 281.762 389.974 281.796C390.124 281.831 390.356 281.577 390.288 280.966C390.217 280.599 390.006 280.263 389.688 280.008C389.243 279.672 388.66 279.498 388.064 279.523C387.348 279.595 386.665 279.82 386.08 280.178C385.496 280.535 385.028 281.013 384.723 281.566C383.888 282.778 383.42 284.145 383.359 285.547C383.181 288.49 384.723 291.317 387.123 292.136C387.568 292.271 388.042 292.324 388.512 292.29C388.983 292.256 389.44 292.137 389.851 291.94C390.41 291.617 390.533 291.294 390.479 291.271Z" fill="#FF9A6C"/>
<path d="M390.492 253.627C390.492 252.9 390.179 254.308 390.492 253.627V253.627Z" fill="#455A64"/>
<path d="M460.998 233.19C454.6 229.543 449.335 225.331 433.718 225.308C421.646 225.308 412.807 231.24 403.3 238.256C391.024 247.269 383.345 261.971 388.487 274.976L393.63 276.673L398.499 266.691C406.901 251.227 424.415 238.221 443.238 237.46C444.975 237.382 446.716 237.406 448.449 237.529C460.916 238.591 473.696 257.793 473.696 257.793C473.696 257.793 476.002 241.753 460.998 233.19Z" fill="#779EF3"/>
<path d="M393.643 276.615C393.916 279.627 394.462 282.385 394.734 285.374C394.857 286.655 395.239 288.213 396.685 288.559C397.226 288.639 397.783 288.57 398.274 288.362C398.765 288.155 399.164 287.819 399.413 287.405C399.894 286.586 400.155 285.688 400.177 284.774C401.241 275.623 402.141 268.618 403.205 259.49C400.054 263.194 396.862 269.506 393.643 276.615Z" fill="#263238"/>
<path d="M390.792 299.557C390.792 299.557 390.888 299.845 390.67 300.318C390.314 300.992 389.671 301.528 388.869 301.818C387.689 302.259 386.351 302.288 385.145 301.899C384.398 301.68 383.718 301.323 383.155 300.854C382.591 300.385 382.157 299.815 381.886 299.187C381.635 298.557 381.544 297.889 381.619 297.226C381.695 296.564 381.934 295.923 382.322 295.344C382.984 294.41 384.035 293.719 385.268 293.406C386.074 293.185 386.935 293.145 387.764 293.29C388.351 293.406 388.624 293.544 388.61 293.579C387.544 293.453 386.457 293.531 385.432 293.81C384.359 294.133 383.459 294.772 382.895 295.61C382.567 296.124 382.368 296.689 382.309 297.27C382.25 297.852 382.334 298.438 382.554 298.991C382.792 299.537 383.166 300.032 383.651 300.444C384.136 300.857 384.72 301.176 385.364 301.38C386.425 301.731 387.604 301.731 388.665 301.38C389.382 301.17 389.997 300.764 390.411 300.226C390.656 299.822 390.724 299.545 390.792 299.557Z" fill="#E0E0E0"/>
<path d="M427.047 241.118C427.047 241.118 440.687 244.291 445.257 243.08C448.309 242.294 450.94 240.628 452.691 238.371C452.691 238.371 442.133 234.425 427.047 241.118Z" fill="#263238"/>
<path d="M502.504 270.66C503.019 270.199 503.498 269.71 503.936 269.195C505.061 267.711 505.57 265.953 505.382 264.198C505.203 262.883 504.697 261.615 503.898 260.478C503.099 259.34 502.024 258.358 500.744 257.597C497.476 255.675 493.508 254.796 489.546 255.116H488.946L489.205 254.654C490.742 252.185 491.823 249.531 492.41 246.784C492.842 244.567 492.66 242.296 491.878 240.149C491.09 238.164 489.675 236.4 487.786 235.048C484.505 232.794 480.478 231.456 476.261 231.217C473.409 231.043 470.544 231.112 467.708 231.424L465.376 231.678C465.107 231.726 464.832 231.745 464.557 231.736C464.817 231.649 465.087 231.588 465.362 231.551C465.881 231.459 466.726 231.332 467.667 231.194C470.518 230.784 473.415 230.652 476.302 230.801C480.652 230.974 484.823 232.316 488.209 234.632C490.205 236.038 491.701 237.883 492.533 239.964C493.37 242.201 493.566 244.574 493.106 246.888C492.511 249.707 491.406 252.431 489.832 254.966L489.491 254.539C493.625 254.215 497.758 255.157 501.14 257.193C502.463 257.997 503.569 259.031 504.382 260.224C505.196 261.418 505.7 262.746 505.859 264.117C506.015 265.943 505.418 267.758 504.168 269.252C503.736 269.815 503.169 270.295 502.504 270.66Z" fill="#263238"/>
<path d="M361.316 295.206H360.948H359.857C358.888 295.206 357.47 295.091 355.656 294.917C353.436 294.717 351.252 294.294 349.149 293.66C346.323 292.808 343.843 291.291 342.002 289.286C340.007 286.701 339.09 283.626 339.397 280.55C339.489 278.866 339.685 277.186 339.983 275.519C340.212 273.733 340.646 271.971 341.279 270.256C341.967 268.413 343.322 266.798 345.153 265.64C347.117 264.417 349.681 264.348 351.973 264.371C354.264 264.394 356.761 264.452 358.657 263.298C359.563 262.656 360.301 261.862 360.825 260.966C361.348 260.07 361.646 259.092 361.698 258.093C361.798 256.029 361.707 253.961 361.425 251.908C361.299 249.87 361.399 247.826 361.726 245.803C362.321 241.975 363.74 238.271 365.913 234.875C367.862 231.792 370.487 229.05 373.647 226.797C376.406 224.845 379.556 223.328 382.949 222.319C387.841 220.783 393.131 220.384 398.267 221.165C400.157 221.438 401.993 221.932 403.723 222.631L403.368 222.55L402.332 222.25C400.995 221.88 399.627 221.594 398.24 221.396C393.162 220.697 387.956 221.135 383.14 222.666C379.816 223.688 376.731 225.2 374.029 227.131C370.955 229.366 368.401 232.066 366.5 235.094C364.374 238.439 362.987 242.084 362.408 245.849C362.092 247.834 361.997 249.839 362.121 251.839C362.399 253.922 362.49 256.021 362.394 258.116C362.335 259.2 362.009 260.261 361.436 261.231C360.862 262.201 360.055 263.058 359.066 263.748C358.016 264.348 356.807 264.721 355.547 264.833C354.35 264.932 353.147 264.963 351.946 264.925C349.754 264.596 347.497 264.981 345.627 266.002C343.757 267.023 342.414 268.605 341.866 270.43C341.236 272.109 340.802 273.837 340.57 275.588C340.263 277.236 340.058 278.896 339.956 280.562C339.635 283.535 340.489 286.514 342.384 289.032C344.148 290.991 346.538 292.48 349.272 293.325C351.336 293.983 353.482 294.436 355.669 294.675C357.47 294.883 358.875 294.987 359.83 295.067L360.921 295.16C361.055 295.155 361.189 295.171 361.316 295.206Z" fill="#263238"/>
<path d="M405.005 238.279C404.688 238.743 404.318 239.18 403.9 239.583C403.532 239.975 403.068 240.472 402.536 241.072C402.004 241.672 401.445 242.33 400.859 243.103C399.454 244.894 398.17 246.751 397.012 248.665C395.614 251.01 394.402 253.431 393.384 255.912C392.41 258.409 391.631 260.957 391.052 263.54C390.59 265.65 390.276 267.781 390.11 269.922C390.015 270.845 390.015 271.676 389.974 272.403C389.933 273.13 389.974 273.765 389.974 274.272C390.038 274.806 390.038 275.343 389.974 275.876C389.846 275.352 389.773 274.819 389.756 274.284C389.756 273.765 389.66 273.13 389.66 272.403C389.66 271.676 389.66 270.833 389.66 269.91C389.76 267.74 390.029 265.577 390.465 263.436C391.01 260.819 391.78 258.238 392.77 255.716C393.801 253.21 395.041 250.769 396.48 248.411C397.673 246.49 399.017 244.64 400.504 242.872C401.104 242.099 401.745 241.453 402.277 240.876C402.722 240.372 403.2 239.89 403.71 239.433C404.093 239.012 404.527 238.625 405.005 238.279Z" fill="#263238"/>
<path d="M418.768 232.763C418.261 233.246 417.709 233.694 417.118 234.102C416.558 234.506 415.89 235.013 415.153 235.648C414.417 236.283 413.53 236.94 412.644 237.76C410.509 239.628 408.501 241.597 406.628 243.657C404.361 246.192 402.288 248.848 400.422 251.608C398.596 254.388 396.978 257.264 395.58 260.217C394.461 262.639 393.505 265.112 392.716 267.625C392.334 268.687 392.116 269.679 391.87 270.533C391.624 271.387 391.447 272.137 391.311 272.749C391.2 273.389 391.036 274.021 390.82 274.642C390.825 273.995 390.903 273.349 391.052 272.714C391.133 272.091 391.27 271.33 391.474 270.464C391.679 269.599 391.884 268.595 392.225 267.521C392.95 264.976 393.861 262.471 394.953 260.02C397.657 254.013 401.414 248.384 406.097 243.322C408.01 241.261 410.073 239.303 412.275 237.46C413.189 236.652 414.103 235.994 414.867 235.394C415.631 234.794 416.34 234.309 416.913 233.917C417.494 233.491 418.114 233.105 418.768 232.763Z" fill="#263238"/>
<path d="M370.537 301.276C370.537 301.276 370.428 301.368 370.169 301.507C369.8 301.724 369.407 301.909 368.996 302.061C367.426 302.682 365.709 302.994 363.976 302.972C361.207 302.969 358.505 302.252 356.229 300.918C353.257 299.07 351.209 296.35 350.486 293.29C350.027 291.535 349.957 289.724 350.282 287.947C350.647 286.02 351.428 284.165 352.587 282.477C353.811 280.67 355.378 279.044 357.224 277.665C359.204 276.241 361.374 275.017 363.69 274.019C366.091 273.035 368.288 271.73 370.196 270.153C372.06 268.41 373.386 266.305 374.056 264.025C374.768 261.649 375.175 259.216 375.27 256.766C375.42 254.274 375.407 251.712 375.707 249.127C375.922 246.551 376.613 244.021 377.753 241.626C378.897 239.278 380.838 237.27 383.331 235.856C385.746 234.558 388.389 233.592 391.161 232.994C393.889 232.348 396.48 231.84 398.976 231.194C401.41 230.617 403.714 229.705 405.796 228.493C406.286 228.202 406.742 227.874 407.16 227.512C407.602 227.17 408.016 226.804 408.402 226.416C409.131 225.63 409.792 224.801 410.379 223.935C411.432 222.218 412.703 220.605 414.171 219.123C415.636 217.81 417.399 216.762 419.355 216.042C422.292 214.914 425.58 214.617 428.732 215.195C431.885 215.773 434.733 217.195 436.855 219.25C438.01 220.334 438.933 221.579 439.583 222.931C439.825 223.394 440.007 223.878 440.128 224.373C440.128 224.373 439.937 223.877 439.446 222.977C438.747 221.66 437.792 220.451 436.623 219.4C434.782 217.733 432.46 216.5 429.885 215.822C426.453 214.975 422.777 215.192 419.518 216.434C417.64 217.144 415.947 218.164 414.54 219.434C413.117 220.904 411.882 222.498 410.857 224.189C410.259 225.08 409.584 225.932 408.838 226.739C408.443 227.149 408.015 227.534 407.556 227.893C407.11 228.275 406.622 228.619 406.097 228.92C403.953 230.174 401.579 231.122 399.072 231.724C396.535 232.405 393.889 232.878 391.243 233.548C388.544 234.135 385.971 235.077 383.618 236.34C381.233 237.701 379.377 239.628 378.285 241.88C377.179 244.216 376.512 246.685 376.307 249.196C376.007 251.746 376.02 254.285 375.87 256.801C375.765 259.294 375.345 261.77 374.615 264.186C373.912 266.557 372.53 268.745 370.592 270.557C368.621 272.168 366.361 273.504 363.894 274.515C361.613 275.483 359.475 276.676 357.524 278.069C355.731 279.394 354.197 280.952 352.982 282.685C351.848 284.318 351.081 286.113 350.718 287.982C350.39 289.702 350.441 291.459 350.868 293.163C351.532 296.131 353.477 298.784 356.324 300.607C358.522 301.932 361.142 302.664 363.84 302.707C365.543 302.747 367.237 302.475 368.805 301.911C370.019 301.599 370.51 301.276 370.537 301.276Z" fill="#455A64"/>
<path d="M464.557 275.715C464.569 276.463 464.235 277.186 463.626 277.729C463.017 278.272 462.182 278.593 461.298 278.623C460.865 278.654 460.428 278.612 460.015 278.498C459.602 278.384 459.22 278.202 458.892 277.96C458.563 277.719 458.296 277.425 458.105 277.095C457.913 276.765 457.802 276.405 457.778 276.038C457.771 275.288 458.108 274.566 458.719 274.023C459.33 273.48 460.167 273.16 461.052 273.13C461.484 273.1 461.919 273.144 462.33 273.258C462.742 273.373 463.122 273.556 463.449 273.797C463.776 274.038 464.042 274.332 464.233 274.661C464.423 274.99 464.533 275.349 464.557 275.715Z" fill="#263238"/>
<path d="M467.436 266.945C467.013 267.325 464.435 265.721 460.779 265.733C457.124 265.744 454.45 267.302 454.041 266.887C453.85 266.714 454.273 266.044 455.405 265.317C456.986 264.388 458.867 263.892 460.793 263.898C462.693 263.891 464.547 264.396 466.085 265.34C467.258 266.102 467.64 266.783 467.436 266.945Z" fill="#263238"/>
<path d="M432.94 275.715C432.951 276.465 432.615 277.19 432.003 277.733C431.392 278.276 430.553 278.596 429.666 278.623C429.234 278.653 428.8 278.609 428.388 278.495C427.976 278.38 427.596 278.197 427.269 277.956C426.943 277.715 426.676 277.421 426.486 277.092C426.295 276.762 426.185 276.404 426.161 276.038C426.15 275.29 426.484 274.567 427.093 274.024C427.702 273.481 428.537 273.16 429.421 273.13C429.854 273.098 430.29 273.141 430.703 273.255C431.117 273.368 431.499 273.551 431.827 273.792C432.155 274.034 432.423 274.328 432.614 274.658C432.805 274.988 432.916 275.348 432.94 275.715Z" fill="#263238"/>
<path d="M432.804 266.944C432.381 267.325 429.803 265.721 426.147 265.733C422.492 265.744 419.818 267.302 419.423 266.887C419.232 266.714 419.655 266.044 420.787 265.317C422.369 264.39 424.249 263.894 426.175 263.898C428.079 263.892 429.937 264.397 431.48 265.34C432.626 266.102 433.008 266.783 432.804 266.944Z" fill="#263238"/>
<path d="M494.852 363.788C479.071 347.528 465.417 345.22 465.417 345.22L465.512 403.209L515.844 457.066L536.304 412.741C536.304 412.741 505.546 374.797 494.852 363.788Z" fill="#779EF3"/>
<path d="M443.061 340.627L465.621 345.243C465.621 345.243 477.27 402.401 473.042 417.184C469.454 429.762 457.915 487.809 457.915 487.809H318.787L365.422 374.555C365.422 374.555 365.695 349.652 358.493 338.146C362.858 337.258 377.589 334.961 390.315 332.942C390.315 332.942 398.772 341.874 418.686 344.482C438.601 347.09 443.061 340.627 443.061 340.627Z" fill="#779EF3"/>
<path d="M470.682 388.507H383.29C375.652 426.312 357.047 440.818 324.257 462.709L318.801 487.832H457.929L466.003 448.353L465.526 433.824L470.682 388.507Z" fill="#455A64"/>
<path d="M361.848 337.592C361.848 337.592 328.621 339.843 316.686 385.91C311.23 406.752 304.41 431.17 302.514 447.58C301.15 459.489 306.129 475.945 319.646 478.669L344.28 481.3C355.26 481.439 362.79 473.903 365.095 465.813L368.832 452.981C371.478 437.263 357.333 435.902 349.381 436.04L366.868 377.532L370.264 349.213L361.848 337.592Z" fill="#779EF3"/>
<path d="M475.388 376.771C475.457 376.983 475.507 377.199 475.538 377.417L475.865 379.275C475.865 379.679 476.015 380.129 476.097 380.613C476.179 381.098 476.22 381.652 476.288 382.229C476.424 383.383 476.602 384.687 476.67 386.153C476.906 389.565 476.934 392.985 476.752 396.4C476.494 400.582 475.985 404.749 475.224 408.886C474.46 413.283 473.505 417.449 472.496 421.223C471.487 424.996 470.559 428.354 469.768 431.193C468.977 434.032 468.227 436.294 467.722 437.863C467.476 438.625 467.272 439.225 467.122 439.675C467.072 439.891 466.99 440.101 466.876 440.298C466.911 440.081 466.961 439.865 467.026 439.652L467.517 437.829L469.413 431.113C470.191 428.274 471.132 424.904 472.06 421.13C472.987 417.357 473.955 413.214 474.706 408.817C475.456 404.421 476.07 400.22 476.22 396.377C476.37 392.534 476.452 389.072 476.22 386.164C476.22 384.71 476.042 383.395 475.933 382.252C475.933 381.675 475.824 381.098 475.783 380.637C475.742 380.175 475.647 379.702 475.592 379.298C475.497 378.525 475.415 377.902 475.36 377.428C475.342 377.209 475.351 376.989 475.388 376.771Z" fill="#263238"/>
<path d="M330.845 429.255C331.111 429.216 331.383 429.216 331.649 429.255C332.383 429.236 333.117 429.263 333.845 429.335C336.255 429.541 338.617 430.043 340.856 430.824C343.093 431.609 345.187 432.658 347.076 433.94C347.653 434.325 348.2 434.741 348.713 435.186C348.915 435.337 349.09 435.512 349.231 435.705C349.163 435.763 348.331 435.105 346.858 434.194C343.009 431.795 338.521 430.233 333.791 429.647C332.004 429.37 330.845 429.37 330.845 429.255Z" fill="#263238"/>
<path d="M365.258 369.604C365.179 369.196 365.151 368.782 365.177 368.37C365.177 367.573 365.108 366.431 364.999 365.023C364.401 357.674 362.019 350.509 358.002 343.974C357.238 342.728 356.57 341.724 356.092 341.043C355.816 340.705 355.587 340.341 355.41 339.958C355.732 340.266 356.02 340.598 356.27 340.951C356.802 341.608 357.511 342.589 358.329 343.824C362.573 350.35 364.981 357.616 365.367 365.058C365.436 366.477 365.436 367.619 365.367 368.416C365.37 368.814 365.334 369.211 365.258 369.604Z" fill="#263238"/>
<g opacity="0.3">
<path opacity="0.3" d="M473.86 415.453C482.344 403.301 482.521 387.514 475.129 374.878C477.507 388.355 476.994 402.084 473.615 415.407" fill="black"/>
</g>
<path d="M364.358 384.283C364.208 384.283 360.703 395.766 356.529 409.994C352.355 424.223 349.068 435.786 349.218 435.809C349.368 435.832 352.86 424.339 357.047 410.098C361.235 395.858 364.494 384.364 364.358 384.283Z" fill="#263238"/>
<g opacity="0.3">
<path opacity="0.3" d="M398.172 396.296V397.82L388.119 398.374L383.018 364.123C383.018 364.123 380.863 352.583 379.458 348.394C378.053 344.205 372.092 335.838 372.092 335.838L376.511 335.134L385.2 346.997L398.172 396.296Z" fill="black"/>
</g>
<path d="M399.495 396.25C399.495 396.25 395.034 364.434 390.82 351.729C386.605 339.023 380.058 334.5 380.058 334.5L373.579 335.527C373.579 335.527 380.03 342.162 382.513 353.864C384.995 365.565 389.674 396.631 389.674 396.631L399.495 396.25Z" fill="#455A64"/>
<path d="M399.495 396.25H398.881L397.026 396.354L389.688 396.723H389.538V396.596C388.596 390.826 387.164 382.091 385.446 371.428C384.518 366.085 383.55 360.245 382.268 354.118C381.62 350.963 380.606 347.871 379.239 344.886C377.86 341.77 376.027 338.813 373.783 336.081L373.402 335.665L373.047 335.261L373.606 335.18L380.085 334.142H380.262L380.372 334.234C382.319 335.808 383.986 337.611 385.323 339.589C386.642 341.471 387.791 343.434 388.76 345.463C390.55 349.279 391.92 353.227 392.852 357.257C394.707 364.896 395.907 371.797 396.944 377.567C397.981 383.337 398.595 387.953 399.045 391.219C399.263 392.8 399.413 394.034 399.536 394.923C399.536 395.315 399.618 395.639 399.645 395.881C399.672 396.123 399.645 396.216 399.645 396.216C399.605 396.106 399.578 395.994 399.563 395.881C399.563 395.639 399.454 395.327 399.386 394.935C399.236 394.058 399.031 392.823 398.772 391.253C398.24 388.045 397.49 383.395 396.453 377.625C395.416 371.855 394.134 364.931 392.252 357.36C391.31 353.37 389.941 349.461 388.16 345.682C387.199 343.688 386.059 341.759 384.75 339.912C383.446 337.995 381.829 336.243 379.949 334.707L380.249 334.765L373.77 335.804L373.974 335.319L374.384 335.757C376.683 338.529 378.562 341.533 379.976 344.701C381.347 347.719 382.37 350.841 383.031 354.025C384.286 360.199 385.241 366.027 386.114 371.335C387.86 382.033 389.142 390.792 389.96 396.539L389.797 396.423L397.053 396.216H398.949L399.495 396.25Z" fill="#263238"/>
<path d="M465.417 345.22C465.417 345.22 466.917 379.99 461.775 397.82L451.954 397.554C451.954 397.554 459.252 354.314 458.283 343.535C460.793 343.568 463.25 344.148 465.417 345.22Z" fill="#455A64"/>
<path d="M465.417 345.22C465.417 345.22 464.871 344.932 463.698 344.528C461.953 343.973 460.107 343.68 458.242 343.662L458.392 343.524C458.761 348.382 458.065 355.976 457.028 365.3C455.992 374.624 454.3 385.726 452.309 397.612L451.968 397.266H452.227L461.775 397.531L461.42 397.762C463.128 390.978 464.2 384.09 464.626 377.163C465.103 370.839 465.28 365.173 465.362 360.442C465.444 355.71 465.43 351.902 465.362 349.294C465.362 348.013 465.362 346.986 465.362 346.282C465.362 345.578 465.362 345.255 465.362 345.232C465.436 345.578 465.473 345.93 465.471 346.282C465.471 347.009 465.553 348.013 465.608 349.282C465.703 351.902 465.799 355.71 465.785 360.442C465.771 365.173 465.635 370.828 465.185 377.198C464.812 384.159 463.767 391.083 462.061 397.9L461.993 398.131H461.707L452.159 397.866H451.518V397.531C453.482 385.668 455.132 374.59 456.333 365.277C457.533 355.964 458.283 348.382 458.051 343.559V343.42H458.215C460.091 343.467 461.941 343.808 463.671 344.424C464.11 344.589 464.534 344.782 464.939 345.001L465.417 345.22Z" fill="#263238"/>
<path d="M455.173 392.777C455.176 393.267 455.35 393.745 455.674 394.152C455.998 394.558 456.457 394.875 456.993 395.061C457.529 395.247 458.118 395.294 458.686 395.197C459.254 395.1 459.776 394.863 460.184 394.515C460.593 394.168 460.871 393.726 460.983 393.245C461.095 392.764 461.036 392.266 460.814 391.813C460.592 391.36 460.216 390.974 459.734 390.701C459.252 390.429 458.685 390.284 458.106 390.284C457.72 390.284 457.337 390.349 456.98 390.474C456.624 390.599 456.3 390.783 456.027 391.015C455.755 391.246 455.539 391.521 455.393 391.824C455.246 392.126 455.171 392.45 455.173 392.777Z" fill="#E0E0E0"/>
<path d="M458.106 395.292C457.518 395.292 456.943 395.145 456.454 394.868C455.965 394.592 455.584 394.199 455.359 393.739C455.134 393.28 455.075 392.774 455.189 392.286C455.304 391.798 455.587 391.35 456.003 390.998C456.419 390.646 456.949 390.406 457.526 390.309C458.103 390.212 458.7 390.262 459.244 390.452C459.787 390.643 460.252 390.965 460.578 391.379C460.905 391.793 461.079 392.279 461.079 392.777C461.076 393.443 460.761 394.081 460.205 394.552C459.648 395.023 458.893 395.289 458.106 395.292ZM458.106 390.319C457.531 390.319 456.97 390.463 456.492 390.733C456.014 391.003 455.642 391.387 455.422 391.836C455.202 392.285 455.144 392.779 455.256 393.256C455.368 393.733 455.645 394.171 456.051 394.515C456.458 394.859 456.975 395.093 457.539 395.187C458.103 395.282 458.687 395.234 459.218 395.048C459.749 394.862 460.202 394.546 460.522 394.142C460.841 393.738 461.011 393.263 461.011 392.777C461.011 392.125 460.705 391.5 460.16 391.039C459.615 390.578 458.876 390.319 458.106 390.319Z" fill="#263238"/>
<path d="M393.902 394.427C395.522 394.427 396.835 393.316 396.835 391.946C396.835 390.575 395.522 389.465 393.902 389.465C392.283 389.465 390.97 390.575 390.97 391.946C390.97 393.316 392.283 394.427 393.902 394.427Z" fill="#E0E0E0"/>
<path d="M393.902 394.461C393.314 394.461 392.739 394.314 392.25 394.038C391.761 393.761 391.38 393.368 391.155 392.908C390.93 392.449 390.871 391.943 390.986 391.455C391.101 390.967 391.384 390.519 391.8 390.167C392.216 389.815 392.745 389.575 393.322 389.478C393.899 389.381 394.497 389.431 395.04 389.622C395.584 389.812 396.048 390.134 396.375 390.548C396.701 390.962 396.876 391.448 396.876 391.946C396.872 392.612 396.558 393.25 396.001 393.721C395.444 394.192 394.69 394.458 393.902 394.461ZM393.902 389.488C393.328 389.488 392.766 389.632 392.288 389.902C391.81 390.172 391.438 390.556 391.218 391.005C390.998 391.454 390.941 391.948 391.053 392.425C391.165 392.902 391.442 393.34 391.848 393.684C392.254 394.028 392.772 394.262 393.336 394.357C393.899 394.451 394.483 394.403 395.014 394.217C395.545 394.031 395.999 393.716 396.318 393.311C396.637 392.907 396.808 392.432 396.808 391.946C396.808 391.294 396.502 390.669 395.957 390.208C395.412 389.747 394.673 389.488 393.902 389.488Z" fill="#263238"/>
<path d="M452.568 418.234C452.583 418.36 452.583 418.488 452.568 418.615V419.769C452.568 420.75 452.568 422.192 452.35 424.05C452.174 426.319 451.716 428.566 450.986 430.755C449.919 433.649 448.154 436.325 445.803 438.614C440.879 443.91 431.972 447.972 421.578 449.092C418.906 449.354 416.21 449.385 413.53 449.184C410.693 449.017 407.917 448.402 405.346 447.372C400.019 445.111 395.682 441.473 392.961 436.986C390.306 432.511 388.866 427.591 388.746 422.584C388.671 421.385 388.671 420.183 388.746 418.984C388.807 418.366 388.991 417.761 389.292 417.195C389.621 416.604 390.186 416.13 390.888 415.857C392.217 415.536 393.61 415.449 394.98 415.603L398.936 415.741L426.57 416.699L445.189 417.391L450.249 417.622L451.613 417.691C451.762 417.673 451.914 417.673 452.063 417.691H450.29L445.216 417.588L426.584 417.08L398.949 416.237L395.007 416.122C393.721 415.976 392.412 416.05 391.161 416.341C390.611 416.606 390.159 416.994 389.853 417.462C389.548 417.931 389.401 418.461 389.428 418.996C389.353 420.168 389.353 421.343 389.428 422.515C389.53 427.43 390.928 432.264 393.52 436.663C396.164 441.048 400.387 444.608 405.578 446.83C408.058 447.831 410.736 448.433 413.476 448.607C416.105 448.804 418.75 448.781 421.373 448.538C431.631 447.453 440.401 443.506 445.298 438.337C447.622 436.097 449.385 433.483 450.481 430.651C451.241 428.487 451.739 426.264 451.968 424.015C452.172 422.169 452.254 420.727 452.322 419.746C452.322 419.284 452.323 418.915 452.391 418.592C452.436 418.468 452.495 418.348 452.568 418.234Z" fill="#263238"/>
<g opacity="0.3">
<path opacity="0.3" d="M376.32 450.627C376.67 448.523 376.498 446.38 375.815 444.335C375.131 442.291 373.952 440.389 372.351 438.752C370.726 437.076 368.712 435.7 366.435 434.708C364.157 433.715 361.663 433.128 359.107 432.982C358.537 418.412 359.799 403.832 362.871 389.488L349.231 435.648C349.231 435.648 368.218 435.867 368.587 449.253L376.32 450.627Z" fill="black"/>
</g>
<g opacity="0.3">
<path opacity="0.3" d="M390.82 274.872C392.267 265.385 396.164 256.284 402.236 248.215C402.905 247.327 403.6 246.207 402.987 245.295C402.672 244.943 402.223 244.694 401.715 244.59C401.208 244.487 400.673 244.537 400.204 244.73C399.266 245.156 398.483 245.79 397.94 246.565C394.617 250.593 392.288 255.145 391.09 259.951C389.893 264.757 389.852 269.718 390.97 274.538" fill="black"/>
</g>
<path d="M626.546 407.871L607.259 488.016H439.76C438.874 488.016 438.024 487.718 437.397 487.188C436.77 486.658 436.418 485.939 436.418 485.189C436.416 484.817 436.502 484.449 436.669 484.105C436.836 483.762 437.082 483.449 437.393 483.186C437.704 482.924 438.073 482.715 438.479 482.574C438.885 482.432 439.321 482.36 439.76 482.362H473.478L491.374 407.813C491.537 407.121 491.978 406.497 492.621 406.047C493.265 405.597 494.072 405.349 494.907 405.344L622.932 404.19C623.473 404.186 624.008 404.285 624.499 404.478C624.99 404.671 625.424 404.954 625.769 405.306C626.115 405.658 626.364 406.071 626.499 406.515C626.633 406.958 626.649 407.421 626.546 407.871Z" fill="#E0E0E0"/>
<path d="M626.546 407.871C626.552 407.79 626.552 407.709 626.546 407.629C626.583 407.387 626.583 407.143 626.546 406.902C626.48 406.427 626.286 405.973 625.979 405.572C625.671 405.172 625.258 404.837 624.773 404.594C624.433 404.418 624.059 404.293 623.668 404.224C623.219 404.15 622.76 404.127 622.304 404.155H619.29L611.747 404.213L563.352 404.605L529.607 404.882L510.702 405.055L500.785 405.136H495.711C495.288 405.136 494.879 405.136 494.416 405.136C493.74 405.204 493.097 405.42 492.549 405.762C492.002 406.104 491.568 406.56 491.292 407.086C491.123 407.439 491.004 407.807 490.937 408.183L490.678 409.256C490.501 409.971 490.337 410.698 490.16 411.425C489.805 412.868 489.464 414.333 489.11 415.799C488.4 418.73 487.686 421.704 486.968 424.719C485.522 430.736 484.04 436.89 482.521 443.183C479.507 455.75 476.37 468.814 473.123 482.281L473.355 482.131H440.319C439.864 482.107 439.406 482.127 438.955 482.189C438.063 482.353 437.278 482.799 436.759 483.435C436.477 483.786 436.284 484.183 436.193 484.6C436.103 485.018 436.116 485.447 436.233 485.86C436.35 486.273 436.568 486.66 436.872 486.998C437.176 487.336 437.561 487.616 438 487.82C438.485 488.037 439.021 488.159 439.569 488.178H528.556H607.205H607.341V488.062C613.247 463.425 618.035 443.38 621.363 429.497L625.264 413.468C625.701 411.645 626.028 410.248 626.246 409.29C626.464 408.333 626.56 407.871 626.56 407.871L626.192 409.29L625.169 413.456C624.268 417.126 622.959 422.515 621.268 429.451C617.898 443.299 613.084 463.367 607.096 487.993L607.273 487.866H528.625H439.651C439.175 487.848 438.709 487.742 438.287 487.555C437.903 487.378 437.567 487.134 437.301 486.84C437.035 486.546 436.845 486.208 436.743 485.848C436.642 485.488 436.631 485.113 436.711 484.749C436.791 484.385 436.961 484.04 437.209 483.735C437.661 483.184 438.344 482.801 439.119 482.662C439.519 482.601 439.927 482.582 440.333 482.604H473.683V482.454L483.067 443.345C484.567 437.067 486.041 430.912 487.486 424.881C488.205 421.865 488.919 418.892 489.628 415.961C489.969 414.495 490.324 413.029 490.665 411.587C490.842 410.86 491.019 410.133 491.183 409.417L491.442 408.344C491.51 407.993 491.62 407.649 491.769 407.317C492.096 406.678 492.681 406.159 493.42 405.851C493.783 405.7 494.176 405.607 494.579 405.575C494.961 405.575 495.411 405.575 495.834 405.575H500.895L510.811 405.482L529.784 405.136L563.529 404.801L611.924 404.294L619.467 404.213H622.481C622.915 404.196 623.349 404.216 623.777 404.27C624.156 404.342 624.52 404.463 624.855 404.628C625.34 404.872 625.753 405.207 626.06 405.607C626.368 406.007 626.562 406.462 626.628 406.936C626.645 407.249 626.618 407.563 626.546 407.871Z" fill="#263238"/>
<path d="M626.396 408.517H617.612L593.66 408.621L514.657 409.094L503.227 409.175H500.417C499.938 409.163 499.458 409.19 498.985 409.256C498.5 409.337 498.038 409.493 497.621 409.717C496.786 410.163 496.181 410.86 495.93 411.668C495.711 412.452 495.561 413.191 495.37 413.976C494.006 420.011 492.642 425.839 491.278 431.389L484.458 460.874C482.521 469.252 480.939 476.049 479.848 480.758C479.33 483.066 478.907 484.912 478.62 486.158C478.498 486.77 478.389 487.243 478.32 487.566C478.252 487.889 478.225 488.051 478.225 488.051C478.225 488.051 478.225 487.889 478.361 487.578L478.716 486.181C479.016 484.935 479.466 483.112 480.08 480.781C481.212 476.084 482.808 469.298 484.84 460.92C486.873 452.542 489.191 442.549 491.824 431.459C493.188 425.908 494.552 420.092 495.916 414.056C496.093 413.306 496.271 412.522 496.462 411.748C496.631 411.211 496.977 410.725 497.46 410.347C497.943 409.969 498.543 409.715 499.19 409.614C499.641 409.554 500.097 409.531 500.554 409.544H503.363L514.794 409.475L593.797 408.887L617.748 408.667L624.255 408.586H625.96L626.396 408.517Z" fill="#263238"/>
<path d="M354.565 195.985C356.926 197.186 359.731 197.6 362.433 197.145C365.136 196.69 367.54 195.399 369.178 193.525C370.816 191.65 371.569 189.327 371.291 187.008C371.012 184.689 369.722 182.541 367.673 180.983C369.925 180.234 371.84 178.903 373.148 177.18C374.455 175.457 375.087 173.429 374.954 171.384C374.821 169.34 373.93 167.383 372.407 165.792C370.885 164.2 368.808 163.055 366.472 162.519C367.344 160.65 367.63 158.623 367.303 156.633C366.976 154.643 366.047 152.758 364.607 151.161C363.166 149.564 361.263 148.308 359.08 147.516C356.898 146.724 354.511 146.422 352.15 146.64C350.604 144.022 348.066 141.918 344.941 140.663C341.816 139.408 338.284 139.075 334.909 139.716C332.973 138.588 330.66 138.013 328.309 138.076C325.959 138.139 323.694 138.836 321.845 140.066C319.997 141.296 318.662 142.994 318.036 144.912C317.409 146.83 317.524 148.867 318.364 150.725" fill="#263238"/>
<path d="M355.383 197.739C359.365 188.332 359.012 178.001 354.394 168.805C349.775 159.608 341.231 152.222 330.463 148.117L328.253 147.275C303.701 139.324 282.027 152.525 273.311 173.494L235.119 245.769L254.815 299.349L284.25 272.807L298.559 258.809C298.559 258.809 323.111 264.579 333.805 245.226C338.974 235.844 347.717 215.88 355.383 197.739Z" fill="#AE7461"/>
<path d="M298.791 258.809C288.107 254.745 279.03 248.167 272.643 239.86C272.643 239.86 270.242 255.924 294.112 262.94L298.791 258.809Z" fill="#6F4439"/>
<path d="M339.929 213.122C339.551 213.85 338.851 214.424 337.979 214.722C337.108 215.019 336.133 215.017 335.264 214.714C334.831 214.584 334.433 214.381 334.094 214.117C333.756 213.854 333.483 213.536 333.292 213.182C333.101 212.828 332.996 212.445 332.984 212.056C332.971 211.667 333.051 211.28 333.218 210.918C333.599 210.192 334.299 209.62 335.169 209.322C336.04 209.025 337.013 209.026 337.883 209.325C338.315 209.457 338.711 209.661 339.049 209.925C339.387 210.188 339.659 210.506 339.849 210.86C340.04 211.213 340.145 211.596 340.159 211.984C340.172 212.373 340.094 212.759 339.929 213.122Z" fill="#263238"/>
<path d="M345.371 205.367C344.771 205.575 343.121 203.059 339.588 201.732C336.055 200.405 332.659 200.89 332.468 200.382C332.372 200.151 333.136 199.655 334.636 199.389C336.644 199.077 338.717 199.299 340.57 200.024C342.405 200.723 343.933 201.894 344.935 203.371C345.644 204.49 345.644 205.286 345.371 205.367Z" fill="#263238"/>
<path d="M307.452 201.397C307.074 202.122 306.377 202.694 305.508 202.992C304.64 203.289 303.669 203.288 302.801 202.99C302.368 202.86 301.971 202.658 301.632 202.396C301.292 202.134 301.019 201.818 300.827 201.465C300.635 201.112 300.528 200.73 300.514 200.342C300.499 199.954 300.576 199.567 300.741 199.205C301.122 198.479 301.821 197.906 302.691 197.607C303.561 197.307 304.534 197.305 305.406 197.601C305.839 197.731 306.237 197.935 306.576 198.198C306.914 198.461 307.187 198.779 307.378 199.133C307.569 199.487 307.673 199.87 307.686 200.259C307.699 200.648 307.619 201.035 307.452 201.397Z" fill="#263238"/>
<path d="M310.357 192.673C309.757 192.881 308.107 190.365 304.574 189.038C301.041 187.711 297.645 188.207 297.454 187.688C297.358 187.457 298.122 186.961 299.623 186.695C301.63 186.383 303.703 186.605 305.556 187.33C307.392 188.028 308.919 189.2 309.921 190.677C310.63 191.796 310.644 192.592 310.357 192.673Z" fill="#263238"/>
<path d="M311.367 219.723C311.367 219.55 313.808 220.069 317.559 221.038C318.514 221.304 319.442 221.477 319.878 221.038C320.37 220.278 320.58 219.409 320.478 218.546C320.615 216.376 320.76 214.103 320.915 211.726C321.61 202.032 322.565 194.208 323.029 194.243C323.493 194.277 323.288 202.136 322.579 211.83C322.374 214.207 322.197 216.446 322.02 218.65C322.09 219.787 321.69 220.909 320.887 221.823C320.613 222.04 320.284 222.202 319.925 222.296C319.565 222.39 319.186 222.414 318.814 222.366C318.25 222.292 317.7 222.157 317.177 221.962C313.508 220.738 311.285 219.908 311.367 219.723Z" fill="#263238"/>
<path d="M316.85 182.91C315.991 183.487 313.399 181.514 309.73 179.991C306.061 178.467 302.637 177.786 302.719 176.875C302.719 176.448 303.797 176.009 305.447 175.917C307.572 175.85 309.681 176.247 311.571 177.071C313.455 177.859 315.059 179.053 316.223 180.533C317.096 181.699 317.259 182.633 316.85 182.91Z" fill="#263238"/>
<path d="M351.441 194.958C350.336 195.35 347.799 193.527 344.307 192.165C340.815 190.804 337.596 190.146 337.296 189.176C337.174 188.715 338.006 188.219 339.642 188.022C341.867 187.919 344.084 188.317 346.067 189.176C348.073 189.957 349.793 191.181 351.045 192.719C351.918 193.954 351.946 194.75 351.441 194.958Z" fill="#263238"/>
<path d="M266.914 193.839C267.269 193.115 267.446 192.338 267.434 191.554C267.423 190.771 267.222 189.997 266.846 189.281C266.469 188.565 265.924 187.922 265.244 187.39C264.564 186.858 263.763 186.449 262.89 186.188C258.416 184.895 252.551 185.137 248.841 192.731C242.253 206.221 259.616 209.037 259.835 208.656C260.053 208.275 264.213 199.505 266.914 193.839Z" fill="#AE7461"/>
<path d="M258.839 202.367C258.839 202.367 258.484 202.436 257.925 202.459C257.147 202.462 256.396 202.215 255.825 201.767C254.461 200.613 254.092 197.901 255.197 195.443C255.718 194.269 256.549 193.211 257.625 192.35C257.977 191.979 258.43 191.688 258.947 191.501C259.463 191.313 260.025 191.237 260.585 191.277C260.935 191.305 261.263 191.436 261.512 191.646C261.761 191.857 261.916 192.134 261.949 192.431C261.949 192.881 261.744 193.123 261.826 193.169C261.908 193.215 262.276 193.065 262.413 192.465C262.492 192.102 262.42 191.727 262.208 191.404C261.907 190.969 261.418 190.65 260.844 190.515C260.136 190.397 259.405 190.435 258.719 190.625C258.034 190.815 257.418 191.151 256.929 191.6C255.696 192.545 254.758 193.735 254.201 195.062C252.974 197.82 253.369 200.936 255.402 202.309C255.78 202.565 256.222 202.745 256.694 202.837C257.167 202.929 257.657 202.93 258.13 202.84C258.648 202.69 258.88 202.413 258.839 202.367Z" fill="#6F4439"/>
<path d="M357.074 165.104C357.121 164.72 357.121 164.334 357.074 163.95C356.784 162.523 356.108 161.171 355.101 160.001C354.093 158.83 352.78 157.871 351.264 157.199C349.903 155.75 348.412 154.392 346.803 153.137C346.577 150.984 345.704 148.916 344.268 147.128C342.832 145.34 340.88 143.892 338.597 142.921C336.315 141.95 333.777 141.489 331.224 141.58C328.671 141.671 326.189 142.313 324.011 143.443L321.938 142.97C320.795 141.235 319.196 139.745 317.265 138.616C315.334 137.486 313.122 136.747 310.8 136.454C308.478 136.162 306.108 136.325 303.872 136.931C301.636 137.536 299.594 138.568 297.904 139.947C296.211 138.786 294.152 138.072 291.984 137.892C289.815 137.712 287.632 138.075 285.704 138.935C283.777 139.795 282.191 141.115 281.142 142.731C280.093 144.346 279.628 146.187 279.804 148.025C276.244 148.313 272.561 149.767 271.033 152.491C269.506 155.214 271.033 158.676 274.157 159.496C270.215 165.646 267.023 173.459 263.886 180.268C261.676 185.022 267.214 190.469 266 193.804C259.848 210.872 270.842 204.34 291.043 171.878C291.575 171.774 292.121 171.647 292.694 171.497C293.853 171.186 294.48 170.459 295.585 170.02C296.69 169.582 298.313 170.366 299.582 170.978C301.795 172.006 304.358 172.359 306.842 171.976C309.326 171.594 311.579 170.5 313.222 168.878C313.604 170.793 316.359 171.763 318.678 171.474C320.997 171.186 322.933 170.055 325.02 169.235C327.107 168.416 329.685 167.977 331.636 169.016C332.713 169.593 333.491 170.597 334.705 170.955C336.86 171.59 338.947 169.928 340.161 168.312C341.197 166.962 342.316 165.381 343.98 164.758C345.507 164.712 347.032 164.899 348.481 165.312C349.231 165.693 349.941 166.131 350.65 166.466C350.995 166.646 351.355 166.804 351.727 166.939C352.145 167.263 352.537 167.609 352.9 167.977C358.356 173.471 357.893 187.953 357.893 187.953C362.53 180.452 361.003 172.132 357.074 165.104Z" fill="#263238"/>
<path d="M311.926 143.755C311.926 143.755 312.035 143.64 312.294 143.467C312.671 143.217 313.068 142.99 313.481 142.786C315.452 141.843 317.682 141.355 319.947 141.371C322.212 141.387 324.432 141.907 326.384 142.878C329.334 144.386 331.48 146.801 332.372 149.617L331.908 149.41C333.516 148.908 335.195 148.586 336.901 148.452C338.899 148.261 340.923 148.417 342.848 148.909C344.773 149.401 346.56 150.219 348.099 151.314C349.37 152.2 350.401 153.307 351.123 154.559C351.845 155.811 352.242 157.18 352.287 158.572C352.321 160.446 351.642 162.279 350.35 163.8C350.003 164.225 349.595 164.613 349.136 164.954C348.822 165.173 348.658 165.277 348.631 165.266C348.604 165.254 349.286 164.781 350.118 163.719C351.275 162.203 351.856 160.423 351.782 158.619C351.704 157.299 351.299 156.008 350.594 154.83C349.89 153.651 348.9 152.61 347.69 151.775C346.206 150.745 344.492 149.977 342.65 149.517C340.809 149.057 338.877 148.915 336.969 149.098C335.33 149.231 333.717 149.537 332.168 150.01L331.799 150.125L331.704 149.814C330.871 147.139 328.86 144.835 326.084 143.374C323.851 142.211 321.238 141.677 318.623 141.851C316.881 141.955 315.181 142.347 313.617 143.005C312.512 143.443 311.967 143.79 311.926 143.755Z" fill="white"/>
<path d="M277.444 147.979C277.444 147.979 277.526 147.979 277.689 147.84C277.853 147.702 278.112 147.644 278.467 147.517C279.506 147.166 280.609 146.971 281.727 146.94C283.492 146.898 285.242 147.219 286.828 147.875C288.957 148.714 290.674 150.154 291.684 151.948H291.193C292.425 150.692 293.958 149.671 295.691 148.953C297.424 148.235 299.317 147.836 301.246 147.783C303.415 147.667 305.591 147.902 307.657 148.475C309.823 149.104 311.851 150.032 313.658 151.221C317.003 153.491 319.816 156.27 321.951 159.415L321.433 159.357C324.25 157.089 327.979 155.811 331.868 155.78C334.907 155.771 337.874 156.557 340.365 158.03C341.995 158.982 343.386 160.198 344.457 161.607C344.734 161.977 344.98 162.363 345.194 162.761C345.344 163.038 345.412 163.188 345.385 163.188C345.357 163.188 345.03 162.646 344.266 161.7C343.163 160.367 341.775 159.221 340.174 158.319C337.735 156.938 334.857 156.218 331.922 156.253C328.199 156.309 324.637 157.545 321.938 159.715L321.638 159.957L321.419 159.657C319.294 156.583 316.52 153.864 313.235 151.637C311.492 150.482 309.539 149.574 307.452 148.948C305.471 148.392 303.384 148.157 301.3 148.256C299.46 148.298 297.65 148.668 295.989 149.339C294.328 150.011 292.852 150.971 291.657 152.156L291.37 152.468L291.179 152.11C290.24 150.401 288.637 149.016 286.637 148.186C285.122 147.528 283.444 147.184 281.741 147.182C280.262 147.22 278.805 147.49 277.444 147.979Z" fill="white"/>
<path d="M344.635 163.95C344.465 164.096 344.282 164.231 344.089 164.354C343.596 164.763 343.14 165.202 342.725 165.669C342.152 166.27 341.497 167.054 340.706 167.977C339.853 169.064 338.732 169.982 337.419 170.666C336.569 171.019 335.588 171.073 334.691 170.816C333.779 170.514 332.91 170.127 332.099 169.662C331.292 169.184 330.352 168.89 329.371 168.808C328.304 168.835 327.255 169.047 326.289 169.432C325.252 169.801 324.216 170.274 323.138 170.712C322.063 171.274 320.889 171.687 319.66 171.936C318.324 172.107 316.96 171.992 315.691 171.601C315.027 171.412 314.404 171.131 313.849 170.77C313.226 170.385 312.805 169.81 312.676 169.166L313.29 169.305C312.016 170.762 310.2 171.815 308.134 172.293C305.979 172.761 303.712 172.713 301.587 172.155C300.706 171.926 299.852 171.628 299.036 171.266C298.355 170.841 297.574 170.545 296.745 170.401C295.938 170.335 295.129 170.506 294.453 170.886C293.679 171.227 292.877 171.521 292.052 171.763C288.922 172.843 285.424 172.885 282.259 171.878C279.554 170.724 277.439 168.775 276.312 166.397C275.316 164.384 275.06 162.164 275.575 160.026L275.766 160.269C274.795 160.082 273.884 159.718 273.097 159.202C272.31 158.685 271.666 158.029 271.21 157.28C270.672 156.364 270.446 155.339 270.557 154.32C270.667 153.301 271.111 152.328 271.838 151.51C271.982 151.352 272.136 151.202 272.302 151.06L272.493 150.921C271.73 151.717 271.202 152.654 270.951 153.656C270.672 154.834 270.884 156.058 271.551 157.118C271.992 157.812 272.606 158.415 273.351 158.888C274.095 159.36 274.952 159.689 275.862 159.853H276.107V160.061C275.651 162.114 275.926 164.235 276.898 166.154C277.991 168.403 280.006 170.243 282.573 171.336C285.591 172.258 288.907 172.196 291.875 171.163C292.671 170.935 293.443 170.65 294.18 170.309C294.989 169.868 295.951 169.673 296.908 169.755C297.386 169.805 297.849 169.93 298.272 170.124L299.418 170.689C300.194 171.034 301.007 171.316 301.846 171.532C303.846 172.061 305.981 172.109 308.011 171.67C308.981 171.44 309.902 171.082 310.739 170.609C311.531 170.135 312.235 169.563 312.826 168.912L313.331 168.37L313.44 169.051C313.604 170.032 314.804 170.678 315.991 171.024C317.154 171.387 318.406 171.498 319.632 171.347C320.803 171.115 321.922 170.726 322.947 170.193C324.025 169.755 325.061 169.293 326.139 168.924C327.189 168.52 328.327 168.304 329.481 168.289C330.56 168.384 331.592 168.709 332.481 169.235C333.25 169.698 334.078 170.085 334.95 170.389C335.337 170.513 335.749 170.568 336.162 170.552C336.575 170.536 336.979 170.45 337.351 170.297C338.618 169.656 339.711 168.794 340.556 167.77C341.375 166.893 342.057 166.131 342.67 165.543C343.128 165.081 343.635 164.656 344.184 164.273C344.322 164.153 344.472 164.045 344.635 163.95Z" fill="#455A64"/>
<path d="M11.464 417.888C11.464 417.888 4.42575 433.767 1.91599 438.037C-0.593774 442.306 1.91599 488.224 1.91599 488.224H162.459L164.723 447.834L87.4251 408.402L11.464 417.888Z" fill="#263238"/>
<path d="M352.614 353.587L415.808 363.673C415.808 363.673 414.608 386.753 415.413 386.222C416.217 385.691 326.834 385.518 326.834 385.518L352.614 353.587Z" fill="#AE7461"/>
<path d="M414.69 363.592L458.488 375.028L477.734 386.464L494.866 402.136C494.866 402.136 494.675 406.486 488.196 403.74C483.56 401.585 479.273 398.932 475.442 395.846L488.196 415.66C488.196 415.66 483.053 420.011 478.866 413.733C474.678 407.456 468.404 399.366 468.404 399.366L464.598 396.954C464.598 396.954 468.595 402.909 468.595 404.524C468.595 406.14 464.598 415.164 464.598 415.164L458.297 422.446C457.776 422.403 457.27 422.272 456.81 422.062C456.35 421.851 455.944 421.565 455.616 421.22C455.288 420.875 455.045 420.478 454.901 420.053C454.757 419.627 454.715 419.181 454.778 418.742C454.997 416.655 455.888 414.659 457.356 412.972L449.731 418.615C449.731 418.615 447.071 417.322 449.349 413.133L452.213 410.56L453.154 406.532L450.877 403.463C450.877 403.463 444.97 403.786 440.401 397.993C435.832 392.2 428.78 393.377 418.877 388.322C408.974 383.268 409.929 377.844 409.929 377.844L414.69 363.592Z" fill="#AE7461"/>
<path d="M438.205 377.752C438.512 379.295 439.072 380.794 439.869 382.206C440.777 383.718 441.93 385.117 443.293 386.36C444.984 387.878 446.808 389.286 448.749 390.573C450.789 391.817 452.644 393.266 454.273 394.888C454.938 395.586 455.406 396.403 455.642 397.277C455.878 398.151 455.877 399.058 455.637 399.931C455.433 400.516 455.065 401.051 454.564 401.489C454.062 401.927 453.443 402.256 452.759 402.447C452.393 402.542 452.009 402.577 451.627 402.551C451.368 402.551 451.231 402.493 451.231 402.47C451.722 402.433 452.207 402.352 452.677 402.228C453.28 402.015 453.817 401.687 454.247 401.271C454.678 400.855 454.99 400.361 455.16 399.828C455.351 399.021 455.328 398.188 455.092 397.39C454.856 396.591 454.413 395.847 453.796 395.212C452.164 393.654 450.334 392.253 448.34 391.034C446.385 389.728 444.56 388.289 442.884 386.73C441.503 385.434 440.359 383.972 439.487 382.391C438.907 381.326 438.516 380.194 438.328 379.033C438.197 378.615 438.155 378.181 438.205 377.752Z" fill="#6F4439"/>
<path d="M475.033 394.969C474.613 394.876 474.213 394.728 473.846 394.531C473.11 394.219 472.06 393.746 470.764 393.134C468.186 391.923 464.667 390.169 460.875 388.126C457.833 386.499 455.078 384.929 452.895 383.637H453.154C451.19 384.145 449.581 384.549 448.449 384.791C447.867 384.967 447.262 385.083 446.648 385.137C447.183 384.88 447.75 384.675 448.34 384.526L452.977 383.152H453.1L453.223 383.222L461.243 387.595C465.049 389.638 468.513 391.438 471.023 392.742C472.412 393.414 473.752 394.158 475.033 394.969Z" fill="#6F4439"/>
<path d="M464.312 395.604C463.48 396.586 462.227 397.253 460.82 397.462C459.483 397.86 458.016 397.802 456.728 397.3C456.728 397.116 458.57 397.358 460.67 396.873C462.771 396.389 464.23 395.465 464.312 395.604Z" fill="#6F4439"/>
<path d="M457.042 399.366C458.219 401.547 459.173 403.809 459.893 406.128C460.191 407.101 460.055 408.132 459.511 409.025C459.074 409.833 458.61 410.479 458.283 411.056C457.961 411.683 457.719 412.336 457.56 413.006C457.321 412.297 457.414 411.536 457.819 410.883C458.092 410.26 458.542 409.579 458.911 408.806C459.367 408.021 459.473 407.124 459.211 406.278C458.268 404.028 457.543 401.716 457.042 399.366Z" fill="#6F4439"/>
<path d="M7.03101 409.914L63.3642 358.48C63.3642 358.48 137.484 250.8 152.229 240.876C189.057 216.053 230.932 229.047 230.932 229.047L245.854 224.258L270.979 278.254C270.979 278.254 261.663 289.794 260.735 292.102C259.807 294.41 148.069 437.448 148.069 437.448L108.158 484.762C108.158 484.762 46.2869 474.953 19.798 446.368C7.69937 433.236 7.03101 409.914 7.03101 409.914Z" fill="#455A64"/>
<path d="M277.212 277.042L285.478 271.076L285.628 289.274L299.909 306.354C299.909 306.354 258.089 348.959 249.441 356.068C240.793 363.177 172.034 432.232 172.034 432.232C172.034 432.232 168.392 465.006 163.768 474.295C159.144 483.585 127.895 481.138 127.895 481.138L143.417 443.53L149.869 416.388L227.944 328.972L258.58 295.033L277.212 277.042Z" fill="#455A64"/>
<path d="M256.302 335.527C256.302 336.611 298.791 370.978 298.791 370.978C298.791 370.978 301.86 377.486 305.365 378.571C308.871 379.656 326.384 386.522 326.384 386.522L353.828 353.206C353.828 353.206 339.956 342.358 336.014 340.512C332.072 338.666 322.592 329.364 322.592 329.364L290.784 297.052L266.382 307.588L256.302 335.527Z" fill="#455A64"/>
<path d="M258.58 295.079C258.629 294.966 258.693 294.857 258.771 294.756L259.385 293.856C259.985 293.025 260.749 291.871 261.812 290.394C263.981 287.393 267.023 283.181 270.733 278.081L271.047 278.438L247.941 283.654L247.6 283.735L247.504 283.447C246.727 280.931 245.908 278.311 245.076 275.634C241.121 262.79 237.547 251.169 234.942 242.687L231.941 232.694L231.163 229.959C231.061 229.644 230.983 229.324 230.932 229.001C231.086 229.303 231.21 229.616 231.3 229.936C231.532 230.605 231.832 231.494 232.214 232.625C232.991 235.036 234.082 238.395 235.419 242.584C238.079 251.054 241.734 262.652 245.758 275.484C246.59 278.161 247.409 280.781 248.186 283.297L247.763 283.077L270.951 277.977L271.661 277.815L271.265 278.334C267.487 283.401 264.363 287.566 262.14 290.532L259.589 293.89L258.894 294.756C258.689 294.987 258.593 295.091 258.58 295.079Z" fill="#263238"/>
<path d="M285.628 288.582C285.405 288.805 285.153 289.006 284.878 289.182L282.668 290.752L274.689 296.233L274.116 296.625L274.198 296.002C274.634 292.54 275.139 288.49 275.684 284.162C275.848 282.904 276.012 281.658 276.162 280.469L276.762 280.712C271.852 284.658 267.5 288.109 264.377 290.567L260.653 293.44C260.238 293.808 259.781 294.141 259.289 294.433C259.659 294.016 260.075 293.63 260.53 293.279L264.09 290.278C267.146 287.74 271.429 284.231 276.366 280.273L277.062 279.708L276.953 280.516C276.803 281.67 276.639 282.951 276.476 284.22C275.903 288.536 275.357 292.575 274.893 296.048L274.402 295.818L282.586 290.498L284.905 289.044C285.125 288.868 285.368 288.713 285.628 288.582Z" fill="#263238"/>
<path d="M290.784 314.305C290.784 314.305 290.675 314.489 290.416 314.801C290.156 315.112 289.693 315.597 289.229 316.128C288.179 317.282 286.637 318.932 284.728 320.952C280.881 325.002 275.494 330.53 269.383 336.531C263.272 342.531 257.611 347.863 253.451 351.671C251.378 353.575 249.687 355.133 248.486 356.16L247.122 357.314C246.965 357.459 246.792 357.59 246.604 357.707C246.71 357.532 246.848 357.372 247.013 357.233L248.295 355.964L253.097 351.348C257.189 347.459 262.754 342.116 268.864 336.092C274.975 330.068 280.418 324.61 284.346 320.64L289.024 315.943L290.388 314.674C290.505 314.54 290.637 314.416 290.784 314.305Z" fill="#263238"/>
<path d="M334.077 340.766C333.778 341.236 333.426 341.68 333.027 342.093C332.318 342.935 331.254 344.124 329.917 345.555C327.189 348.452 323.411 352.364 318.896 356.472C314.381 360.58 310.044 364.111 306.825 366.581C305.215 367.816 303.892 368.797 302.951 369.454C302.488 369.816 301.991 370.144 301.464 370.435C301.869 370.011 302.327 369.624 302.828 369.281L306.538 366.269C309.662 363.719 313.917 360.165 318.432 356.068C322.947 351.971 326.807 348.105 329.59 345.29L332.863 341.943C333.224 341.52 333.63 341.126 334.077 340.766Z" fill="#263238"/>
<path d="M121.525 470.118C121.525 470.118 121.634 469.945 121.866 469.645L122.889 468.306L126.899 463.205L141.767 444.51C154.343 428.724 171.775 406.982 190.871 382.841C209.967 358.699 227.071 336.75 238.434 320.317C244.285 312.181 249.346 305.777 253.178 301.541C255.061 299.407 256.602 297.791 257.666 296.729L258.894 295.518C259.029 295.376 259.175 295.241 259.33 295.114L258.948 295.552L257.789 296.798C256.752 297.895 255.252 299.533 253.397 301.68C249.659 305.95 244.653 312.377 238.87 320.536C227.603 337.05 210.485 358.976 191.512 383.21C172.539 407.444 154.916 429.058 142.244 444.776L127.24 463.367L123.148 468.41L122.057 469.714C121.675 469.968 121.525 470.118 121.525 470.118Z" fill="#263238"/>
<path d="M124.676 412.833C124.676 412.833 124.458 412.729 124.09 412.487L122.507 411.402C121.143 410.456 119.206 409.094 116.847 407.271C112.141 403.717 105.798 398.627 99.1147 392.696C92.4311 386.764 86.8387 381.156 82.924 376.932C80.9598 374.843 79.4049 373.124 78.3546 371.924C77.8772 371.358 77.4953 370.897 77.1679 370.528C76.8405 370.158 76.7723 370.031 76.7996 370.008C76.98 370.14 77.1445 370.287 77.2907 370.447C77.6317 370.805 78.0545 371.243 78.5865 371.774L83.3195 376.667C87.3297 380.775 93.0176 386.36 99.6875 392.292C106.358 398.224 112.564 403.324 117.188 406.948L122.644 411.229C123.23 411.702 123.735 412.083 124.13 412.383C124.334 412.513 124.517 412.665 124.676 412.833Z" fill="#263238"/>
<path d="M211.699 246.126C211.631 246.126 211.099 245.376 209.885 244.107C208.142 242.349 206.062 240.851 203.734 239.675C200.239 237.979 196.465 236.734 192.535 235.983C187.755 234.907 182.816 234.421 177.872 234.54C172.949 234.677 168.126 235.758 163.768 237.702C160.23 239.323 157.073 241.478 154.452 244.061C152.686 245.806 151.158 247.715 149.896 249.75C148.996 251.192 148.532 252.058 148.532 252.058C148.574 251.842 148.653 251.632 148.764 251.435C148.955 251.031 149.214 250.431 149.651 249.692C152.158 245.106 156.127 241.202 161.112 238.419C166.098 235.636 171.902 234.085 177.872 233.94C182.879 233.829 187.877 234.354 192.699 235.498C196.679 236.285 200.493 237.585 204.006 239.352C206.345 240.574 208.409 242.137 210.103 243.968C210.555 244.469 210.97 244.993 211.345 245.538C211.482 245.725 211.6 245.922 211.699 246.126Z" fill="#263238"/>
<path d="M143.417 261.451C143.417 261.451 141.017 332.803 143.417 366.615C144.154 376.944 148.682 383.764 149.623 383.995C152.079 384.606 201.592 381.064 201.592 381.064C201.592 381.064 201.987 368.266 205.684 363.454C209.38 358.641 199.846 360.661 199.846 360.661C199.846 360.661 220.306 272.714 217.742 256.524" fill="#455A64"/>
<path d="M217.783 256.524C217.783 256.524 217.919 257.216 218.028 258.543C218.137 259.87 218.124 261.844 217.946 264.394C217.66 269.495 216.746 276.915 215.218 286.182C212.231 304.726 207.034 330.703 200.214 360.719L199.791 360.384C201.052 360.126 202.341 359.982 203.638 359.957C204.318 359.937 204.997 360.019 205.643 360.199C206.002 360.304 206.322 360.487 206.57 360.73C206.817 361.005 206.943 361.343 206.925 361.688C206.836 362.277 206.589 362.842 206.202 363.338C205.861 363.834 205.561 364.261 205.275 364.746C204.746 365.733 204.317 366.756 203.993 367.804C202.75 372.153 202.059 376.602 201.933 381.075V381.341H201.619L180.6 382.806C174.503 383.198 168.488 383.579 162.541 383.96C159.567 384.122 156.621 384.283 153.675 384.364C152.952 384.364 152.215 384.364 151.479 384.364C151.102 384.387 150.723 384.387 150.346 384.364H149.76C149.61 384.364 149.201 384.168 149.132 384.064C148.219 383.068 147.475 381.969 146.923 380.798C144.74 376.334 143.467 371.589 143.158 366.766C143.022 364.458 142.885 362.15 142.749 359.842C142.667 357.534 142.572 355.225 142.49 353.044C141.971 335.111 142.108 318.967 142.285 305.419C142.463 291.871 142.776 280.896 143.008 273.326C143.144 269.553 143.254 266.61 143.322 264.602C143.322 263.621 143.404 262.859 143.431 262.294C143.458 261.728 143.431 261.521 143.431 261.521C143.431 261.521 143.431 261.786 143.431 262.294C143.431 262.802 143.431 263.586 143.431 264.602C143.431 266.621 143.335 269.553 143.254 273.326C143.104 280.908 142.885 291.871 142.763 305.419C142.64 318.967 142.572 335.111 143.117 353.021C143.213 355.26 143.295 357.534 143.39 359.818C143.485 362.103 143.663 364.434 143.799 366.742C144.105 371.505 145.369 376.188 147.537 380.59C148.058 381.694 148.751 382.734 149.596 383.683C149.632 383.726 149.679 383.761 149.733 383.787C149.733 383.787 149.733 383.787 149.896 383.787H150.387C150.742 383.805 151.097 383.805 151.451 383.787C152.174 383.787 152.897 383.787 153.634 383.787C156.553 383.695 159.499 383.533 162.472 383.372C168.406 383.048 174.421 382.668 180.518 382.275L201.606 380.833L201.278 381.121C201.414 376.605 202.118 372.113 203.379 367.723C203.731 366.64 204.187 365.582 204.743 364.561C205.433 363.691 205.967 362.738 206.325 361.734C206.337 361.522 206.261 361.313 206.108 361.144C205.956 360.975 205.738 360.857 205.493 360.811C204.924 360.658 204.33 360.588 203.733 360.603C202.492 360.628 201.258 360.764 200.051 361.007L199.546 361.111L199.641 360.672C206.461 330.668 211.822 304.715 214.918 286.205C216.459 276.973 217.442 269.541 217.796 264.452C218.014 261.913 218.014 259.94 217.987 258.613C217.987 257.955 217.905 257.459 217.892 257.112C217.878 256.766 217.783 256.524 217.783 256.524Z" fill="#263238"/>
<path d="M201.456 361.099C200.756 361.276 200.04 361.4 199.314 361.469C197.95 361.665 195.918 361.919 193.422 362.173C188.429 362.692 181.514 363.223 173.862 363.5C166.21 363.777 159.254 363.754 154.234 363.592C151.724 363.511 149.692 363.419 148.301 363.315C147.572 363.297 146.847 363.227 146.132 363.107C146.858 363.052 147.588 363.052 148.314 363.107L154.248 363.188C159.253 363.246 166.183 363.188 173.835 362.923C181.487 362.657 188.375 362.184 193.367 361.769L199.273 361.261C199.995 361.159 200.724 361.105 201.456 361.099Z" fill="#263238"/>
<path d="M149.624 383.995L178.731 487.693H207.853L199.71 381.364L149.624 383.995Z" fill="#AE7461"/>
<g opacity="0.3">
<path opacity="0.3" d="M201.456 403.243L211.699 365.427V353.587L207.853 351.51L216.855 273.938L199.887 360.661L201.933 360.511C204.265 360.349 207.171 359.888 206.611 361.803L203.42 367.735L199.873 383.441L201.456 403.243Z" fill="black"/>
</g>
<path d="M297.563 220.75C294.33 223.612 293.376 227.732 296.063 230.974C297.172 232.177 298.799 232.959 300.589 233.15C302.378 233.34 304.184 232.923 305.611 231.99C307.124 230.913 308.308 229.544 309.062 227.997C305.911 225.874 300.741 222.873 297.563 220.75Z" fill="#6F4439"/>
<path d="M304.588 232.671C304.175 232.894 303.709 233.04 303.224 233.098C301.905 233.295 300.548 233.187 299.295 232.786C297.401 232.182 295.862 230.971 295.012 229.416C294.495 228.474 294.213 227.452 294.185 226.413C294.157 225.375 294.383 224.342 294.849 223.381C295.314 222.366 295.988 221.428 296.84 220.611L297.045 220.415L297.304 220.577C300.618 222.654 303.51 224.489 305.488 225.827C306.619 226.499 307.69 227.239 308.693 228.043C307.479 227.485 306.321 226.844 305.229 226.128C303.115 224.881 300.168 223.104 296.84 221.05H297.304C296.512 221.818 295.884 222.696 295.449 223.646C295.019 224.535 294.807 225.488 294.825 226.449C294.844 227.409 295.093 228.356 295.558 229.232C296.31 230.681 297.692 231.83 299.418 232.44C300.589 232.856 301.864 233.019 303.128 232.913C304.083 232.775 304.56 232.625 304.588 232.671Z" fill="#263238"/>
</svg>
