<svg width="548" height="120" viewBox="0 0 548 120" fill="none" xmlns="http://www.w3.org/2000/svg">
<path d="M33.5938 70.9512V96H18.9453V24.9062H46.6797C52.0182 24.9062 56.7057 25.8828 60.7422 27.8359C64.8112 29.7891 67.9362 32.5723 70.1172 36.1855C72.2982 39.7663 73.3887 43.8516 73.3887 48.4414C73.3887 55.4076 70.9961 60.9089 66.2109 64.9453C61.4583 68.9492 54.8665 70.9512 46.4355 70.9512H33.5938ZM33.5938 59.0859H46.6797C50.5534 59.0859 53.4993 58.1745 55.5176 56.3516C57.5684 54.5286 58.5938 51.9245 58.5938 48.5391C58.5938 45.056 57.5684 42.2402 55.5176 40.0918C53.4668 37.9434 50.6348 36.8366 47.0215 36.7715H33.5938V59.0859ZM112.256 56.4004C110.335 56.14 108.643 56.0098 107.178 56.0098C101.839 56.0098 98.3398 57.8164 96.6797 61.4297V96H82.5684V43.168H95.8984L96.2891 49.4668C99.1211 44.6165 103.044 42.1914 108.057 42.1914C109.619 42.1914 111.084 42.403 112.451 42.8262L112.256 56.4004ZM115.137 69.0957C115.137 63.8548 116.146 59.1836 118.164 55.082C120.182 50.9805 123.079 47.8066 126.855 45.5605C130.664 43.3145 135.075 42.1914 140.088 42.1914C147.217 42.1914 153.027 44.3724 157.52 48.7344C162.044 53.0964 164.567 59.0208 165.088 66.5078L165.186 70.1211C165.186 78.2266 162.923 84.737 158.398 89.6523C153.874 94.5352 147.803 96.9766 140.186 96.9766C132.568 96.9766 126.481 94.5352 121.924 89.6523C117.399 84.7695 115.137 78.1289 115.137 69.7305V69.0957ZM129.248 70.1211C129.248 75.1341 130.192 78.9753 132.08 81.6445C133.968 84.2812 136.67 85.5996 140.186 85.5996C143.604 85.5996 146.273 84.2975 148.193 81.6934C150.114 79.0566 151.074 74.8574 151.074 69.0957C151.074 64.1803 150.114 60.3717 148.193 57.6699C146.273 54.9681 143.571 53.6172 140.088 53.6172C136.637 53.6172 133.968 54.9681 132.08 57.6699C130.192 60.3392 129.248 64.4896 129.248 70.1211ZM171.826 69.1934C171.826 61.0879 173.747 54.5612 177.588 49.6133C181.462 44.6654 186.67 42.1914 193.213 42.1914C199.007 42.1914 203.516 44.1771 206.738 48.1484L207.324 43.168H220.117V94.2422C220.117 98.8646 219.059 102.885 216.943 106.303C214.86 109.721 211.914 112.325 208.105 114.115C204.297 115.906 199.837 116.801 194.727 116.801C190.853 116.801 187.077 116.02 183.398 114.457C179.72 112.927 176.937 110.941 175.049 108.5L181.299 99.9062C184.814 103.845 189.079 105.814 194.092 105.814C197.835 105.814 200.749 104.805 202.832 102.787C204.915 100.801 205.957 97.9694 205.957 94.291V91.459C202.702 95.1374 198.421 96.9766 193.115 96.9766C186.768 96.9766 181.624 94.5026 177.686 89.5547C173.779 84.5742 171.826 77.9824 171.826 69.7793V69.1934ZM185.938 70.2188C185.938 75.0039 186.898 78.7637 188.818 81.498C190.739 84.1999 193.376 85.5508 196.729 85.5508C201.025 85.5508 204.102 83.9395 205.957 80.7168V58.5C204.069 55.2773 201.025 53.666 196.826 53.666C193.441 53.666 190.771 55.0495 188.818 57.8164C186.898 60.5833 185.938 64.7174 185.938 70.2188ZM260.693 56.4004C258.773 56.14 257.08 56.0098 255.615 56.0098C250.277 56.0098 246.777 57.8164 245.117 61.4297V96H231.006V43.168H244.336L244.727 49.4668C247.559 44.6165 251.481 42.1914 256.494 42.1914C258.057 42.1914 259.521 42.403 260.889 42.8262L260.693 56.4004ZM296.68 96C296.029 94.7305 295.557 93.1517 295.264 91.2637C291.846 95.0723 287.402 96.9766 281.934 96.9766C276.758 96.9766 272.461 95.4792 269.043 92.4844C265.658 89.4896 263.965 85.7135 263.965 81.1562C263.965 75.5573 266.032 71.2604 270.166 68.2656C274.333 65.2708 280.339 63.7572 288.184 63.7246H294.678V60.6973C294.678 58.2559 294.043 56.3027 292.773 54.8379C291.536 53.373 289.567 52.6406 286.865 52.6406C284.489 52.6406 282.617 53.2103 281.25 54.3496C279.915 55.4889 279.248 57.0514 279.248 59.0371H265.137C265.137 55.9772 266.081 53.1452 267.969 50.541C269.857 47.9368 272.526 45.9023 275.977 44.4375C279.427 42.9401 283.301 42.1914 287.598 42.1914C294.108 42.1914 299.268 43.8353 303.076 47.123C306.917 50.3783 308.838 54.9681 308.838 60.8926V83.793C308.87 88.806 309.57 92.5983 310.938 95.1699V96H296.68ZM285.01 86.1855C287.093 86.1855 289.014 85.7298 290.771 84.8184C292.529 83.8743 293.831 82.6211 294.678 81.0586V71.9766H289.404C282.34 71.9766 278.581 74.418 278.125 79.3008L278.076 80.1309C278.076 81.8887 278.695 83.3372 279.932 84.4766C281.169 85.6159 282.861 86.1855 285.01 86.1855ZM332.91 43.168L333.35 49.0762C337.093 44.4863 342.155 42.1914 348.535 42.1914C355.339 42.1914 360.01 44.877 362.549 50.248C366.26 44.877 371.549 42.1914 378.418 42.1914C384.147 42.1914 388.411 43.8678 391.211 47.2207C394.01 50.541 395.41 55.554 395.41 62.2598V96H381.25V62.3086C381.25 59.3138 380.664 57.1328 379.492 55.7656C378.32 54.3659 376.253 53.666 373.291 53.666C369.059 53.666 366.13 55.6842 364.502 59.7207L364.551 96H350.439V62.3574C350.439 59.2975 349.837 57.084 348.633 55.7168C347.428 54.3496 345.378 53.666 342.48 53.666C338.477 53.666 335.579 55.3262 333.789 58.6465V96H319.678V43.168H332.91ZM419.531 43.168L419.971 49.0762C423.714 44.4863 428.776 42.1914 435.156 42.1914C441.96 42.1914 446.631 44.877 449.17 50.248C452.881 44.877 458.171 42.1914 465.039 42.1914C470.768 42.1914 475.033 43.8678 477.832 47.2207C480.632 50.541 482.031 55.554 482.031 62.2598V96H467.871V62.3086C467.871 59.3138 467.285 57.1328 466.113 55.7656C464.941 54.3659 462.874 53.666 459.912 53.666C455.68 53.666 452.751 55.6842 451.123 59.7207L451.172 96H437.061V62.3574C437.061 59.2975 436.458 57.084 435.254 55.7168C434.049 54.3496 431.999 53.666 429.102 53.666C425.098 53.666 422.201 55.3262 420.41 58.6465V96H406.299V43.168H419.531ZM517.236 96.9766C509.489 96.9766 503.174 94.6003 498.291 89.8477C493.441 85.0951 491.016 78.7637 491.016 70.8535V69.4863C491.016 64.1803 492.041 59.444 494.092 55.2773C496.143 51.0781 499.04 47.8555 502.783 45.6094C506.559 43.3307 510.856 42.1914 515.674 42.1914C522.9 42.1914 528.581 44.4701 532.715 49.0273C536.882 53.5846 538.965 60.0462 538.965 68.4121V74.1738H505.322C505.778 77.6243 507.145 80.3913 509.424 82.4746C511.735 84.5579 514.648 85.5996 518.164 85.5996C523.6 85.5996 527.848 83.6302 530.908 79.6914L537.842 87.4551C535.726 90.4499 532.861 92.7936 529.248 94.4863C525.635 96.1465 521.631 96.9766 517.236 96.9766ZM515.625 53.6172C512.826 53.6172 510.547 54.5612 508.789 56.4492C507.064 58.3372 505.957 61.0391 505.469 64.5547H525.098V63.4316C525.033 60.3066 524.186 57.8978 522.559 56.2051C520.931 54.4798 518.62 53.6172 515.625 53.6172Z" fill="black"/>
<path d="M0 3L72.4368 3" stroke="black" stroke-width="5"/>
<path d="M460 117H548" stroke="black" stroke-width="5"/>
</svg>
